<?xml version="1.0" encoding="utf-8"?>
<!-- Generator: Adobe Illustrator 16.2.0, SVG Export Plug-In . SVG Version: 6.00 Build 0)  -->
<!DOCTYPE svg PUBLIC "-//W3C//DTD SVG 1.1//EN" "http://www.w3.org/Graphics/SVG/1.1/DTD/svg11.dtd">
<svg version="1.1" id="Layer_1" xmlns="http://www.w3.org/2000/svg" xmlns:xlink="http://www.w3.org/1999/xlink" x="0px" y="0px"
	 width="32px" height="32px" viewBox="0 0 32 32" enable-background="new 0 0 32 32" xml:space="preserve">
<path fill="none" d="M30.821,26.408c0,2.762-2.239,5-5,5h-20c-2.762,0-5-2.238-5-5v-20c0-2.761,2.238-5,5-5h20c2.761,0,5,2.238,5,5
	V26.408z"/>
<path fill="#FFFFFF" d="M28.586,24.732c-0.553-0.928-1.211-1.713-1.979-2.354c-0.766-0.641-1.582-1.113-2.455-1.541
	c-0.869-0.426-1.756-0.76-2.656-1c-0.902-0.24-1.574-0.42-2.393-0.539c-0.816-0.119-1.561-0.193-2.227-0.219
	c-0.667-0.025-1.205-0.039-1.61-0.039v6.803l-12.21-9.366l12.21-9.505v6.159c1.604,0.072,3.027,0.295,4.267,0.664
	c1.24,0.37,2.139,0.834,3.072,1.392s1.73,1.183,2.393,1.875c0.662,0.693,1.213,1.395,1.648,2.104
	C27.68,20.834,28.326,22.648,28.586,24.732z"/>
</svg>
