<?xml version="1.0" encoding="utf-8"?>
<!-- Generator: Adobe Illustrator 16.2.0, SVG Export Plug-In . SVG Version: 6.00 Build 0)  -->
<!DOCTYPE svg PUBLIC "-//W3C//DTD SVG 1.1//EN" "http://www.w3.org/Graphics/SVG/1.1/DTD/svg11.dtd">
<svg version="1.1" id="Layer_1" xmlns="http://www.w3.org/2000/svg" xmlns:xlink="http://www.w3.org/1999/xlink" x="0px" y="0px"
	 width="32px" height="32px" viewBox="0 0 32 32" enable-background="new 0 0 32 32" xml:space="preserve">
<path fill="none" d="M30.821,26.408c0,2.762-2.239,5-5,5h-20c-2.762,0-5-2.238-5-5v-20c0-2.761,2.238-5,5-5h20c2.761,0,5,2.238,5,5
	V26.408z"/>
<g>
	<path fill="#993333" d="M28.82,11.408v-3c0-1.104-0.895-2-2-2H4.821c-1.104,0-2,0.896-2,2v3H28.82z"/>
	<path fill="#993333" d="M25.82,12.408v9l-2-2l0,0l-2,2v-9H2.821v12c0,1.104,0.896,2,2,2H26.82c1.105,0,2-0.896,2-2v-12H25.82z
		 M19.82,18.408h-7.999v-3h7.999V18.408z"/>
</g>
</svg>
