<?xml version="1.0" encoding="utf-8"?>
<!-- Generator: Adobe Illustrator 16.2.0, SVG Export Plug-In . SVG Version: 6.00 Build 0)  -->
<!DOCTYPE svg PUBLIC "-//W3C//DTD SVG 1.1//EN" "http://www.w3.org/Graphics/SVG/1.1/DTD/svg11.dtd">
<svg version="1.1" id="Layer_1" xmlns="http://www.w3.org/2000/svg" xmlns:xlink="http://www.w3.org/1999/xlink" x="0px" y="0px"
	 width="32px" height="32px" viewBox="0 0 32 32" enable-background="new 0 0 32 32" xml:space="preserve">
<path fill="none" d="M30.821,26.408c0,2.762-2.239,5-5,5h-20c-2.762,0-5-2.238-5-5v-20c0-2.761,2.238-5,5-5h20c2.761,0,5,2.238,5,5
	V26.408z"/>
<g>
	<path fill="#993333" d="M18.295,17.194v1.535c0.277,0.121,0.598,0.263,0.957,0.42c0.357,0.156,0.727,0.318,1.107,0.484
		c0.381,0.168,0.766,0.332,1.154,0.5c0.391,0.166,0.76,0.32,1.109,0.467c0.35,0.143,0.664,0.271,0.943,0.385
		c0.281,0.115,0.508,0.201,0.684,0.263c0.367,0.132,0.664,0.331,0.893,0.598c0.227,0.268,0.406,0.538,0.537,0.82
		c0.156,0.323,0.271,0.664,0.342,1.022v1.667h-20.4v-1.667c0.079-0.358,0.196-0.699,0.354-1.022c0.131-0.282,0.311-0.553,0.538-0.82
		c0.228-0.267,0.52-0.466,0.878-0.598c0.184-0.062,0.425-0.149,0.722-0.269c0.298-0.118,0.63-0.254,0.997-0.407
		c0.367-0.152,0.754-0.317,1.161-0.491c0.407-0.176,0.812-0.35,1.213-0.524c0.403-0.177,0.783-0.341,1.142-0.498
		c0.36-0.159,0.674-0.299,0.945-0.421v-1.495c-0.017-0.069-0.046-0.178-0.085-0.322c-0.04-0.144-0.081-0.29-0.125-0.44
		c-0.052-0.174-0.114-0.361-0.184-0.563c-0.253-0.472-0.454-1.007-0.604-1.606c-0.149-0.6-0.223-1.236-0.223-1.909
		c0-0.884,0.094-1.632,0.282-2.243c0.188-0.613,0.444-1.111,0.768-1.496c0.323-0.385,0.701-0.665,1.135-0.84
		c0.433-0.176,0.898-0.263,1.396-0.263c0.49,0,0.951,0.085,1.384,0.256c0.434,0.171,0.813,0.446,1.141,0.826
		c0.328,0.381,0.586,0.88,0.775,1.497c0.188,0.615,0.281,1.371,0.281,2.263c0,0.656-0.072,1.278-0.217,1.869
		c-0.145,0.591-0.342,1.122-0.596,1.596c-0.07,0.216-0.137,0.422-0.197,0.614c-0.053,0.168-0.102,0.328-0.145,0.479
		C18.316,17.013,18.295,17.126,18.295,17.194z"/>
	<path opacity="0.5" fill="#993333" d="M24.914,16.345v0.896c0.162,0.068,0.35,0.152,0.559,0.243s0.424,0.187,0.646,0.284
		c0.223,0.096,0.445,0.192,0.674,0.291c0.225,0.096,0.441,0.188,0.646,0.271c0.203,0.083,0.387,0.158,0.551,0.227
		c0.164,0.066,0.295,0.115,0.398,0.15c0.213,0.078,0.387,0.194,0.52,0.351c0.133,0.154,0.236,0.313,0.314,0.478
		c0.092,0.188,0.158,0.387,0.197,1.569v1.7H17.521v-2.674c0.045-0.209,0.113-0.408,0.205-0.596c0.076-0.164,0.182-0.323,0.314-0.478
		c0.133-0.156,0.303-0.272,0.512-0.351c0.107-0.035,0.248-0.086,0.422-0.156c0.174-0.068,0.367-0.147,0.582-0.237
		c0.213-0.088,0.439-0.185,0.678-0.287c0.236-0.101,0.473-0.202,0.707-0.306c0.234-0.103,0.457-0.199,0.666-0.29
		c0.209-0.093,0.393-0.175,0.551-0.246v-0.872c-0.01-0.041-0.027-0.102-0.049-0.188c-0.023-0.084-0.049-0.169-0.072-0.256
		c-0.031-0.101-0.066-0.211-0.109-0.329c-0.146-0.276-0.264-0.588-0.352-0.937c-0.086-0.35-0.129-0.722-0.129-1.114
		c0-0.516,0.055-0.952,0.164-1.308c0.109-0.358,0.26-0.648,0.447-0.873c0.188-0.225,0.41-0.388,0.662-0.49
		c0.254-0.103,0.523-0.153,0.814-0.153c0.287,0,0.555,0.05,0.809,0.149c0.252,0.1,0.473,0.26,0.666,0.481
		c0.191,0.222,0.342,0.514,0.451,0.873c0.109,0.359,0.164,0.8,0.164,1.32c0,0.384-0.043,0.746-0.125,1.091
		c-0.086,0.344-0.201,0.654-0.35,0.931c-0.041,0.126-0.08,0.247-0.115,0.358c-0.029,0.098-0.059,0.19-0.084,0.278
		C24.926,16.239,24.914,16.304,24.914,16.345z"/>
	<path opacity="0.5" fill="#993333" d="M9.614,16.345v0.896c0.163,0.068,0.35,0.152,0.559,0.243
		c0.209,0.091,0.424,0.187,0.646,0.284c0.222,0.096,0.447,0.192,0.673,0.291c0.227,0.096,0.443,0.188,0.647,0.271
		c0.204,0.083,0.388,0.158,0.551,0.227c0.164,0.066,0.296,0.115,0.398,0.15c0.214,0.078,0.388,0.194,0.521,0.351
		c0.133,0.154,0.237,0.313,0.314,0.478c0.091,0.188,0.158,0.387,0.199,1.569v1.7h-11.9v-2.674c0.046-0.209,0.115-0.408,0.206-0.596
		c0.076-0.164,0.181-0.323,0.314-0.478c0.133-0.156,0.303-0.272,0.513-0.351c0.107-0.035,0.248-0.086,0.421-0.156
		c0.174-0.068,0.368-0.147,0.582-0.237c0.214-0.088,0.44-0.185,0.678-0.287c0.237-0.101,0.473-0.202,0.707-0.306
		c0.235-0.103,0.457-0.199,0.666-0.29c0.21-0.093,0.394-0.175,0.551-0.246v-0.872c-0.009-0.041-0.027-0.102-0.049-0.188
		c-0.023-0.084-0.047-0.169-0.073-0.256c-0.03-0.101-0.066-0.211-0.107-0.329c-0.148-0.276-0.265-0.588-0.352-0.937
		c-0.086-0.35-0.13-0.722-0.13-1.114c0-0.516,0.055-0.952,0.165-1.308c0.109-0.358,0.259-0.648,0.448-0.873
		c0.188-0.225,0.409-0.388,0.662-0.49c0.252-0.103,0.523-0.153,0.814-0.153c0.287,0,0.555,0.05,0.807,0.149
		c0.253,0.1,0.475,0.26,0.667,0.481c0.191,0.222,0.341,0.514,0.452,0.873c0.11,0.359,0.164,0.8,0.164,1.32
		c0,0.384-0.042,0.746-0.126,1.091c-0.084,0.344-0.2,0.654-0.348,0.931c-0.041,0.126-0.08,0.247-0.115,0.358
		c-0.031,0.098-0.059,0.19-0.084,0.278C9.627,16.239,9.614,16.304,9.614,16.345z"/>
</g>
</svg>
