<?xml version="1.0" encoding="utf-8"?>
<!-- Generator: Adobe Illustrator 16.2.0, SVG Export Plug-In . SVG Version: 6.00 Build 0)  -->
<!DOCTYPE svg PUBLIC "-//W3C//DTD SVG 1.1//EN" "http://www.w3.org/Graphics/SVG/1.1/DTD/svg11.dtd">
<svg version="1.1" id="Layer_1" xmlns="http://www.w3.org/2000/svg" xmlns:xlink="http://www.w3.org/1999/xlink" x="0px" y="0px"
	 width="32px" height="32px" viewBox="0 0 32 32" enable-background="new 0 0 32 32" xml:space="preserve">
<path fill="none" d="M30.821,26.408c0,2.762-2.239,5-5,5h-20c-2.762,0-5-2.238-5-5v-20c0-2.761,2.238-5,5-5h20c2.761,0,5,2.238,5,5
	V26.408z"/>
<g>
	<g>
		<rect x="9.321" y="3.908" opacity="0.5" fill-rule="evenodd" clip-rule="evenodd" fill="#993333" width="2" height="5"/>
		<rect x="20.322" y="3.908" opacity="0.5" fill-rule="evenodd" clip-rule="evenodd" fill="#993333" width="2" height="5"/>
	</g>
	<g>
		<path fill-rule="evenodd" clip-rule="evenodd" fill="#993333" d="M26.322,6.908h-4v2h-2v-2h-9.001v2h-2v-2h-4
			c-0.552,0-1,0.449-1,1v2h23.001v-2C27.322,7.357,26.875,6.908,26.322,6.908z"/>
		<path fill-rule="evenodd" clip-rule="evenodd" fill="#993333" d="M4.321,27.908c0,0.553,0.448,1,1,1h21.001c0.553,0,1-0.447,1-1
			v-17H4.321V27.908z M21.322,12.908h4v4h-4V12.908z M21.322,17.908h4v4h-4V17.908z M21.322,22.908h4v4h-4V22.908z M16.322,12.908h4
			v4h-4V12.908z M16.322,17.908h4v4h-4V17.908z M16.322,22.908h4v4h-4V22.908z M11.321,12.908h4v4h-4V12.908z M11.321,17.908h4v4h-4
			V17.908z M11.321,22.908h4v4h-4V22.908z M6.321,12.908h4v4h-4V12.908z M6.321,17.908h4v4h-4V17.908z M6.321,22.908h4v4h-4V22.908z
			"/>
	</g>
</g>
</svg>
