<?xml version="1.0" encoding="utf-8"?>
<!-- Generator: Adobe Illustrator 16.2.0, SVG Export Plug-In . SVG Version: 6.00 Build 0)  -->
<!DOCTYPE svg PUBLIC "-//W3C//DTD SVG 1.1//EN" "http://www.w3.org/Graphics/SVG/1.1/DTD/svg11.dtd">
<svg version="1.1" id="Layer_1" xmlns="http://www.w3.org/2000/svg" xmlns:xlink="http://www.w3.org/1999/xlink" x="0px" y="0px"
	 width="32px" height="32px" viewBox="0 0 32 32" enable-background="new 0 0 32 32" xml:space="preserve">
<path fill="none" d="M30.821,26.408c0,2.762-2.239,5-5,5h-20c-2.762,0-5-2.238-5-5v-20c0-2.761,2.238-5,5-5h20c2.761,0,5,2.238,5,5
	V26.408z"/>
<path fill="#993333" d="M16,4.474c-6.617,0-12,5.384-12,12c0,6.618,5.383,12,12,12s12-5.383,12-12C28,9.858,22.617,4.474,16,4.474z
	 M26.234,16.474c0,2.34-0.794,4.5-2.12,6.227c-0.375-0.295-0.773-1.086-0.398-1.906c0.378-0.824,0.477-2.734,0.391-3.477
	c-0.083-0.743-0.469-2.533-1.518-2.55c-1.047-0.016-1.766-0.362-2.389-1.604c-1.291-2.585,2.425-3.081,1.133-4.513
	c-0.361-0.401-2.229,1.655-2.502-1.086C18.813,7.371,19,7.078,19.25,6.773C23.305,8.135,26.234,11.967,26.234,16.474z M14.594,6.341
	c-0.245,0.477-0.891,0.67-1.284,1.029c-0.854,0.773-1.221,0.667-1.682,1.409c-0.463,0.742-1.958,1.813-1.958,2.349
	c0,0.536,0.755,1.17,1.133,1.047c0.378-0.124,1.373-0.117,1.958,0.088c0.586,0.207,4.893,0.414,3.521,4.055
	c-0.435,1.157-2.341,0.961-2.849,2.879c-0.076,0.281-0.338,1.482-0.357,1.875c-0.031,0.607,0.43,2.898-0.156,2.898
	c-0.588,0-2.172-2.049-2.172-2.42s-0.411-1.674-0.411-2.787c0-1.115-1.896-1.098-1.896-2.579c0-1.337,1.029-2.001,0.797-2.642
	c-0.227-0.637-2.034-0.661-2.787-0.737C7.766,9.392,10.862,6.856,14.594,6.341z M12.781,26.186c0.614-0.324,0.677-0.742,1.234-0.766
	c0.638-0.029,1.156-0.25,1.875-0.406c0.638-0.141,1.778-0.787,2.784-0.871c0.846-0.068,2.518,0.045,2.969,0.863
	c-1.62,1.074-3.561,1.703-5.644,1.703C14.875,26.709,13.794,26.523,12.781,26.186z"/>
</svg>
