<?xml version="1.0" encoding="utf-8"?>
<!-- Generator: Adobe Illustrator 16.2.0, SVG Export Plug-In . SVG Version: 6.00 Build 0)  -->
<!DOCTYPE svg PUBLIC "-//W3C//DTD SVG 1.1//EN" "http://www.w3.org/Graphics/SVG/1.1/DTD/svg11.dtd">
<svg version="1.1" id="Layer_1" xmlns="http://www.w3.org/2000/svg" xmlns:xlink="http://www.w3.org/1999/xlink" x="0px" y="0px"
	 width="32px" height="32px" viewBox="0 0 32 32" enable-background="new 0 0 32 32" xml:space="preserve">
<path fill="none" d="M30.821,26.408c0,2.762-2.239,5-5,5h-20c-2.762,0-5-2.238-5-5v-20c0-2.761,2.238-5,5-5h20c2.761,0,5,2.238,5,5
	V26.408z"/>
<path fill="#DD4B38" d="M6.159,10.96c0,1.867,0.624,3.215,1.853,4.007c1.006,0.648,2.175,0.745,2.782,0.745
	c0.147,0,0.266-0.006,0.348-0.011c0,0-0.193,1.254,0.737,2.495l-0.042-0.001c-1.611,0-6.867,0.337-6.867,4.658
	c0,4.396,4.827,4.619,5.795,4.619c0.076,0,0.12-0.002,0.12-0.002c0.011,0,0.08,0.003,0.198,0.003c0.622,0,2.228-0.078,3.72-0.803
	c1.935-0.939,2.917-2.573,2.917-4.856c0-2.206-1.496-3.52-2.587-4.479c-0.667-0.585-1.242-1.09-1.242-1.581
	c0-0.5,0.42-0.876,0.952-1.353c0.861-0.771,1.673-1.866,1.673-3.938c0-1.822-0.236-3.045-1.691-3.82
	c0.152-0.078,0.688-0.135,0.954-0.171c0.789-0.108,1.942-0.23,1.942-0.874V5.474h-5.749C11.915,5.476,6.159,5.688,6.159,10.96z
	 M15.438,22.226c0.11,1.759-1.394,3.056-3.652,3.22c-2.293,0.168-4.182-0.865-4.292-2.621c-0.053-0.844,0.318-1.671,1.044-2.329
	c0.737-0.667,1.748-1.078,2.848-1.159c0.13-0.009,0.259-0.014,0.387-0.014C13.897,19.322,15.334,20.57,15.438,22.226z M13.938,9.757
	c0.564,1.983-0.288,4.057-1.645,4.439c-0.156,0.044-0.317,0.066-0.48,0.066c-1.243,0-2.475-1.258-2.931-2.99
	C8.626,10.299,8.647,9.448,8.939,8.63C9.227,7.826,9.743,7.282,10.393,7.1c0.156-0.044,0.318-0.067,0.481-0.067
	C12.375,7.033,13.34,7.655,13.938,9.757z M23.623,14.076v-3.75h-2.375v3.75h-3.75v2.375h3.75v3.75h2.375v-3.75h3.75v-2.375H23.623z"
	/>
</svg>
