<?xml version="1.0" encoding="utf-8"?>
<!-- Generator: Adobe Illustrator 16.2.0, SVG Export Plug-In . SVG Version: 6.00 Build 0)  -->
<!DOCTYPE svg PUBLIC "-//W3C//DTD SVG 1.1//EN" "http://www.w3.org/Graphics/SVG/1.1/DTD/svg11.dtd">
<svg version="1.1" id="Layer_1" xmlns="http://www.w3.org/2000/svg" xmlns:xlink="http://www.w3.org/1999/xlink" x="0px" y="0px"
	 width="32px" height="32px" viewBox="0 0 32 32" enable-background="new 0 0 32 32" xml:space="preserve">
<path fill="none" d="M30.821,26.408c0,2.762-2.239,5-5,5h-20c-2.762,0-5-2.238-5-5v-20c0-2.761,2.238-5,5-5h20c2.761,0,5,2.238,5,5
	V26.408z"/>
<g>
	<path fill="#993333" d="M3.833,16.659c0.133,6.427,5.311,11.605,11.738,11.738V16.659H3.833z"/>
	<path fill="#666766" d="M27.809,16.659H16.071v11.738C22.498,28.264,27.676,23.086,27.809,16.659z"/>
	<path fill="#993333" d="M27.809,16.159C27.676,9.732,22.498,4.554,16.071,4.421v11.738H27.809z"/>
	<path fill="#666766" d="M3.833,16.159h11.738V4.421C9.144,4.554,3.966,9.732,3.833,16.159z"/>
</g>
</svg>
