<?xml version="1.0" encoding="utf-8"?>
<!-- Generator: Adobe Illustrator 16.2.0, SVG Export Plug-In . SVG Version: 6.00 Build 0)  -->
<!DOCTYPE svg PUBLIC "-//W3C//DTD SVG 1.1//EN" "http://www.w3.org/Graphics/SVG/1.1/DTD/svg11.dtd">
<svg version="1.1" id="Layer_1" xmlns="http://www.w3.org/2000/svg" xmlns:xlink="http://www.w3.org/1999/xlink" x="0px" y="0px"
	 width="32px" height="32px" viewBox="0 0 32 32" enable-background="new 0 0 32 32" xml:space="preserve">
<path fill="none" d="M30.821,26.408c0,2.762-2.239,5-5,5h-20c-2.762,0-5-2.238-5-5v-20c0-2.761,2.238-5,5-5h20c2.761,0,5,2.238,5,5
	V26.408z"/>
<g>
	<path fill="#FFFFFF" d="M19.247,2.225c1.88,0,2.823,1.284,2.823,2.752c0,1.833-1.635,3.527-3.767,3.527
		c-1.782,0-2.822-1.054-2.773-2.795C15.53,4.242,16.771,2.225,19.247,2.225z M13.45,30.326c-1.484,0-2.574-0.916-1.534-4.949
		l1.706-7.154c0.297-1.145,0.345-1.604,0-1.604c-0.447,0-2.376,0.792-3.515,1.571l-0.743-1.239c3.615-3.069,7.775-4.87,9.558-4.87
		c1.483,0,1.73,1.787,0.989,4.538l-1.954,7.519c-0.347,1.329-0.198,1.788,0.149,1.788c0.446,0,1.907-0.55,3.344-1.697l0.844,1.147
		C18.774,28.95,14.937,30.326,13.45,30.326z"/>
</g>
</svg>
