<?xml version="1.0" encoding="utf-8"?>
<!-- Generator: Adobe Illustrator 16.2.0, SVG Export Plug-In . SVG Version: 6.00 Build 0)  -->
<!DOCTYPE svg PUBLIC "-//W3C//DTD SVG 1.1//EN" "http://www.w3.org/Graphics/SVG/1.1/DTD/svg11.dtd">
<svg version="1.1" id="Layer_1" xmlns="http://www.w3.org/2000/svg" xmlns:xlink="http://www.w3.org/1999/xlink" x="0px" y="0px"
	 width="32px" height="32px" viewBox="0 0 32 32" enable-background="new 0 0 32 32" xml:space="preserve">
<g opacity="0.9">
	<path fill="#666766" d="M28.181,23.89v1.661h-3.328l-5.281-7.625l-5.279,7.625H10.9V23.89h1.824l5.472-7.967l-4.832-7.039h-1.92
		V7.222h3.52l4.576,6.746l4.641-6.746h3.455v1.662h-1.887l-4.865,7.039l5.537,7.967H28.181z"/>
</g>
<path fill="none" d="M30.821,26.408c0,2.762-2.239,5-5,5h-20c-2.762,0-5-2.238-5-5v-20c0-2.761,2.238-5,5-5h20c2.761,0,5,2.238,5,5
	V26.408z"/>
<g>
	<path fill="#993333" d="M5.936,17.002c0.072,4.283,2.808,6.047,5.975,6.047c2.268,0,3.635-0.396,4.824-0.9l0.541,2.27
		c-1.117,0.504-3.025,1.078-5.796,1.078c-5.363,0-8.567-3.527-8.567-8.781c0-5.256,3.096-9.396,8.171-9.396
		c5.688,0,7.199,5.003,7.199,8.207c0,0.648-0.072,1.152-0.107,1.476H5.936z M15.223,14.735c0.035-2.016-0.828-5.147-4.392-5.147
		c-3.204,0-4.607,2.951-4.859,5.147H15.223z"/>
</g>
</svg>
