<?xml version="1.0" encoding="utf-8"?>
<!-- Generator: Adobe Illustrator 16.2.0, SVG Export Plug-In . SVG Version: 6.00 Build 0)  -->
<!DOCTYPE svg PUBLIC "-//W3C//DTD SVG 1.1//EN" "http://www.w3.org/Graphics/SVG/1.1/DTD/svg11.dtd">
<svg version="1.1" id="Layer_1" xmlns="http://www.w3.org/2000/svg" xmlns:xlink="http://www.w3.org/1999/xlink" x="0px" y="0px"
	 width="32px" height="32px" viewBox="0 0 32 32" enable-background="new 0 0 32 32" xml:space="preserve">
<path fill="none" d="M30.821,26.408c0,2.762-2.239,5-5,5h-20c-2.762,0-5-2.238-5-5v-20c0-2.761,2.238-5,5-5h20c2.761,0,5,2.238,5,5
	V26.408z"/>
<g>
	<path fill="#027BB6" d="M10.034,7.787c0,1.329-0.981,2.405-2.595,2.405c-1.519,0-2.5-1.076-2.5-2.405
		c0-1.361,1.013-2.405,2.563-2.405C9.053,5.382,10.003,6.426,10.034,7.787z M5.066,27.566V12.091h4.811v15.476H5.066z"/>
	<path fill="#027BB6" d="M12.755,17.027c0-1.93-0.063-3.544-0.126-4.937h4.177l0.222,2.152h0.096
		c0.633-1.014,2.184-2.501,4.778-2.501c3.165,0,5.538,2.121,5.538,6.678v9.146h-4.811V18.99c0-1.994-0.696-3.354-2.438-3.354
		c-1.328,0-2.119,0.917-2.467,1.804c-0.127,0.316-0.159,0.76-0.159,1.202v8.925h-4.811V17.027z"/>
</g>
</svg>
