<?xml version="1.0" encoding="utf-8"?>
<!-- Generator: Adobe Illustrator 16.2.0, SVG Export Plug-In . SVG Version: 6.00 Build 0)  -->
<!DOCTYPE svg PUBLIC "-//W3C//DTD SVG 1.1//EN" "http://www.w3.org/Graphics/SVG/1.1/DTD/svg11.dtd">
<svg version="1.1" id="Layer_1" xmlns="http://www.w3.org/2000/svg" xmlns:xlink="http://www.w3.org/1999/xlink" x="0px" y="0px"
	 width="32px" height="32px" viewBox="0 0 32 32" enable-background="new 0 0 32 32" xml:space="preserve">
<path fill="none" d="M30.821,26.408c0,2.762-2.239,5-5,5h-20c-2.762,0-5-2.238-5-5v-20c0-2.761,2.238-5,5-5h20c2.761,0,5,2.238,5,5
	V26.408z"/>
<g>
	<g>
		<path fill="#FFFFFF" d="M24.821,7.908c0-0.828,0.671-1.5,1.5-1.5l0,0c0.828,0,1.5,0.672,1.5,1.5v9c0,0.828-0.672,1.5-1.5,1.5l0,0
			c-0.829,0-1.5-0.672-1.5-1.5V7.908z"/>
		<path fill="#FFFFFF" d="M3.821,7.908c0-0.828,0.67-1.5,1.5-1.5l0,0c0.828,0,1.5,0.672,1.5,1.5v9c0,0.828-0.672,1.5-1.5,1.5l0,0
			c-0.83,0-1.5-0.672-1.5-1.5V7.908z"/>
		<path fill="#FFFFFF" d="M3.821,7.908c0-0.828,0.67-1.5,1.5-1.5h21c0.828,0,1.5,0.672,1.5,1.5l0,0c0,0.828-0.672,1.5-1.5,1.5h-21
			C4.491,9.408,3.821,8.736,3.821,7.908L3.821,7.908z"/>
	</g>
	<g>
		<polygon fill="#FFFFFF" points="9.821,18.408 21.821,18.408 15.821,26.408 		"/>
		<g>
			<path fill="#FFFFFF" d="M17.821,19.408c0,0.55-0.45,1-1,1h-2c-0.55,0-1-0.45-1-1v-7c0-0.55,0.45-1,1-1h2c0.55,0,1,0.45,1,1
				V19.408z"/>
		</g>
	</g>
</g>
<path d="M10.315,22"/>
</svg>
