<?xml version="1.0" encoding="utf-8"?>
<!-- Generator: Adobe Illustrator 16.2.0, SVG Export Plug-In . SVG Version: 6.00 Build 0)  -->
<!DOCTYPE svg PUBLIC "-//W3C//DTD SVG 1.1//EN" "http://www.w3.org/Graphics/SVG/1.1/DTD/svg11.dtd">
<svg version="1.1" id="Layer_1" xmlns="http://www.w3.org/2000/svg" xmlns:xlink="http://www.w3.org/1999/xlink" x="0px" y="0px"
	 width="32px" height="32px" viewBox="0 0 32 32" enable-background="new 0 0 32 32" xml:space="preserve">
<path fill="none" d="M30.821,26.408c0,2.762-2.239,5-5,5h-20c-2.762,0-5-2.238-5-5v-20c0-2.761,2.238-5,5-5h20c2.761,0,5,2.238,5,5
	V26.408z"/>
<path fill="#993333" d="M9.914,12.804c0.251,0,0.493,0.038,0.722,0.108c0.862-0.966,1.817-1.845,2.853-2.625
	c-0.043-0.183-0.069-0.372-0.069-0.568c0-0.271,0.046-0.531,0.127-0.775c-1.159-0.832-2.42-1.53-3.762-2.07
	C8.527,7.652,7.43,8.665,6.556,9.853c0.649,1.149,1.421,2.221,2.297,3.196C9.174,12.894,9.533,12.804,9.914,12.804z M7.466,15.251
	c0-0.343,0.072-0.67,0.2-0.967c-0.785-0.862-1.497-1.792-2.12-2.784c-0.782,1.553-1.225,3.305-1.225,5.162
	c0,2.151,0.592,4.163,1.619,5.885c0.367-2.07,1.063-4.025,2.025-5.819C7.654,16.318,7.466,15.807,7.466,15.251z M15.866,7.272
	c0.646,0,1.232,0.252,1.668,0.662c1.277-0.549,2.621-0.971,4.02-1.24c-1.688-0.973-3.645-1.532-5.732-1.532
	c-1.424,0-2.786,0.261-4.045,0.734c0.999,0.493,1.951,1.069,2.846,1.718C14.988,7.398,15.412,7.272,15.866,7.272z M19.524,18.797
	c0.152-0.316,0.369-0.596,0.637-0.82c-0.723-2.223-1.867-4.255-3.34-6.004c-0.293,0.125-0.616,0.194-0.955,0.194
	c-0.531,0-1.021-0.171-1.421-0.458c-0.887,0.674-1.708,1.43-2.454,2.254c0.233,0.374,0.37,0.815,0.37,1.289
	c0,0.256-0.04,0.501-0.112,0.733C14.395,17.42,16.865,18.402,19.524,18.797z M22.698,22.1c0.033,0.463,0.051,0.932,0.051,1.402
	c0,0.83-0.053,1.648-0.152,2.451c1.949-1.424,3.436-3.445,4.184-5.797c-0.887,0.213-1.797,0.367-2.727,0.457
	C23.837,21.281,23.339,21.824,22.698,22.1z M18.95,20.441c-2.837-0.469-5.47-1.553-7.76-3.105c-0.372,0.229-0.808,0.363-1.276,0.363
	c-0.172,0-0.34-0.02-0.502-0.053c-1.097,2.08-1.797,4.398-1.999,6.857c1.095,1.174,2.431,2.119,3.932,2.754
	C13.208,24.393,15.813,22.023,18.95,20.441z M23.542,8.139c-1.844,0.178-3.604,0.64-5.242,1.335
	c0.008,0.081,0.012,0.162,0.012,0.245c0,0.386-0.092,0.75-0.25,1.075c1.637,1.922,2.908,4.162,3.711,6.614
	c0.994,0.02,1.846,0.629,2.211,1.494c1.107-0.113,2.186-0.324,3.225-0.629c0.072-0.527,0.113-1.064,0.113-1.612
	C27.321,13.282,25.862,10.243,23.542,8.139z M20.183,21.75c-2.93,1.371-5.38,3.486-7.154,6.07c0.895,0.223,1.83,0.344,2.793,0.344
	c1.734,0,3.378-0.387,4.853-1.074c0.236-1.16,0.361-2.359,0.361-3.588c0-0.443-0.02-0.883-0.053-1.318
	C20.688,22.09,20.417,21.941,20.183,21.75z"/>
</svg>
