<?xml version="1.0" encoding="utf-8"?>
<!-- Generator: Adobe Illustrator 16.2.0, SVG Export Plug-In . SVG Version: 6.00 Build 0)  -->
<!DOCTYPE svg PUBLIC "-//W3C//DTD SVG 1.1//EN" "http://www.w3.org/Graphics/SVG/1.1/DTD/svg11.dtd">
<svg version="1.1" id="Layer_1" xmlns="http://www.w3.org/2000/svg" xmlns:xlink="http://www.w3.org/1999/xlink" x="0px" y="0px"
	 width="32px" height="32px" viewBox="0 0 32 32" enable-background="new 0 0 32 32" xml:space="preserve">
<path fill="none" d="M30.821,26.408c0,2.762-2.239,5-5,5h-20c-2.762,0-5-2.238-5-5v-20c0-2.761,2.238-5,5-5h20c2.761,0,5,2.238,5,5
	V26.408z"/>
<path fill="#993333" d="M28.67,4.907h-24c-0.55,0-1,0.45-1,1v1.001v20l0,0c-1,0-1-1-1-1V9.952V8.907v-0.5c0-0.275-0.224-0.5-0.5-0.5
	s-0.5,0.225-0.5,0.5v0.5c0,0,0,0.39,0,1.045c0,3.709,0,16.107,0,16.957c0,1,1,1,1,1h3h1l0,0h22c0.551,0,1-0.451,1-1V5.907
	C29.67,5.357,29.221,4.907,28.67,4.907z M5.67,6.907h22v4h-22V6.907z M27.67,12.908v5h-6v-5H27.67z M19.67,12.908v5h-6v-5H19.67z
	 M11.17,25.908H6.169c-0.275,0-0.5-0.223-0.5-0.5c0-0.275,0.225-0.5,0.5-0.5h5.001c0.276,0,0.5,0.225,0.5,0.5
	C11.67,25.686,11.446,25.908,11.17,25.908z M11.17,23.908H6.169c-0.275,0-0.5-0.223-0.5-0.5c0-0.275,0.225-0.5,0.5-0.5h5.001
	c0.276,0,0.5,0.225,0.5,0.5C11.67,23.686,11.446,23.908,11.17,23.908z M11.17,21.908H6.169c-0.275,0-0.5-0.223-0.5-0.5
	c0-0.275,0.225-0.5,0.5-0.5h5.001c0.276,0,0.5,0.225,0.5,0.5C11.67,21.686,11.446,21.908,11.17,21.908z M11.17,19.908H6.169
	c-0.275,0-0.5-0.223-0.5-0.5c0-0.275,0.225-0.5,0.5-0.5h5.001c0.276,0,0.5,0.225,0.5,0.5C11.67,19.686,11.446,19.908,11.17,19.908z
	 M11.17,17.908H6.169c-0.275,0-0.5-0.223-0.5-0.5c0-0.275,0.225-0.5,0.5-0.5h5.001c0.276,0,0.5,0.224,0.5,0.5
	C11.67,17.686,11.446,17.908,11.17,17.908z M11.17,15.907H6.169c-0.275,0-0.5-0.223-0.5-0.5c0-0.275,0.225-0.5,0.5-0.5h5.001
	c0.276,0,0.5,0.225,0.5,0.5C11.67,15.684,11.446,15.907,11.17,15.907z M11.17,13.907H6.169c-0.275,0-0.5-0.223-0.5-0.5
	c0-0.275,0.225-0.5,0.5-0.5h5.001c0.276,0,0.5,0.225,0.5,0.5C11.67,13.684,11.446,13.907,11.17,13.907z M19.172,25.908H14.17
	c-0.276,0-0.5-0.223-0.5-0.5c0-0.275,0.224-0.5,0.5-0.5h5.002c0.275,0,0.5,0.225,0.5,0.5C19.672,25.686,19.447,25.908,19.172,25.908
	z M19.172,23.908H14.17c-0.276,0-0.5-0.223-0.5-0.5c0-0.275,0.224-0.5,0.5-0.5h5.002c0.275,0,0.5,0.225,0.5,0.5
	C19.672,23.686,19.447,23.908,19.172,23.908z M19.172,21.908H14.17c-0.276,0-0.5-0.223-0.5-0.5c0-0.275,0.224-0.5,0.5-0.5h5.002
	c0.275,0,0.5,0.225,0.5,0.5C19.672,21.686,19.447,21.908,19.172,21.908z M19.172,19.908H14.17c-0.276,0-0.5-0.223-0.5-0.5
	c0-0.275,0.224-0.5,0.5-0.5h5.002c0.275,0,0.5,0.225,0.5,0.5C19.672,19.686,19.447,19.908,19.172,19.908z M27.172,25.908H22.17
	c-0.275,0-0.5-0.223-0.5-0.5c0-0.275,0.225-0.5,0.5-0.5h5.002c0.275,0,0.5,0.225,0.5,0.5C27.672,25.686,27.447,25.908,27.172,25.908
	z M27.172,23.908H22.17c-0.275,0-0.5-0.223-0.5-0.5c0-0.275,0.225-0.5,0.5-0.5h5.002c0.275,0,0.5,0.225,0.5,0.5
	C27.672,23.686,27.447,23.908,27.172,23.908z M27.172,21.908H22.17c-0.275,0-0.5-0.223-0.5-0.5c0-0.275,0.225-0.5,0.5-0.5h5.002
	c0.275,0,0.5,0.225,0.5,0.5C27.672,21.686,27.447,21.908,27.172,21.908z M27.172,19.908H22.17c-0.275,0-0.5-0.223-0.5-0.5
	c0-0.275,0.225-0.5,0.5-0.5h5.002c0.275,0,0.5,0.225,0.5,0.5C27.672,19.686,27.447,19.908,27.172,19.908z"/>
</svg>
