<?xml version="1.0" encoding="utf-8"?>
<!-- Generator: Adobe Illustrator 16.2.0, SVG Export Plug-In . SVG Version: 6.00 Build 0)  -->
<!DOCTYPE svg PUBLIC "-//W3C//DTD SVG 1.1//EN" "http://www.w3.org/Graphics/SVG/1.1/DTD/svg11.dtd">
<svg version="1.1" id="Layer_1" xmlns="http://www.w3.org/2000/svg" xmlns:xlink="http://www.w3.org/1999/xlink" x="0px" y="0px"
	 width="32px" height="32px" viewBox="0 0 32 32" enable-background="new 0 0 32 32" xml:space="preserve">
<path fill="none" d="M30.821,26.408c0,2.762-2.239,5-5,5h-20c-2.762,0-5-2.238-5-5v-20c0-2.761,2.238-5,5-5h20c2.761,0,5,2.238,5,5
	V26.408z"/>
<path opacity="0.5" fill="#CCCCCC" d="M25.447,16.341v0.949c0.174,0.074,0.371,0.162,0.594,0.258
	c0.221,0.098,0.447,0.197,0.684,0.301c0.234,0.102,0.473,0.204,0.713,0.308c0.24,0.103,0.469,0.198,0.686,0.288
	c0.215,0.088,0.41,0.168,0.582,0.239c0.174,0.07,0.313,0.123,0.422,0.16c0.227,0.083,0.41,0.206,0.551,0.37s0.252,0.333,0.332,0.507
	c0.098,0.198,0.168,0.409,0.211,1.661v1.801h-12.6v-2.83c0.049-0.223,0.121-0.434,0.219-0.632c0.08-0.174,0.191-0.343,0.332-0.507
	s0.32-0.287,0.543-0.37c0.113-0.037,0.262-0.091,0.445-0.165c0.184-0.072,0.389-0.156,0.615-0.252
	c0.227-0.093,0.467-0.195,0.719-0.304c0.25-0.107,0.5-0.214,0.748-0.323c0.25-0.109,0.484-0.211,0.705-0.309
	c0.223-0.098,0.416-0.184,0.584-0.26V16.31c-0.01-0.045-0.029-0.109-0.053-0.199s-0.051-0.18-0.076-0.272
	c-0.033-0.107-0.07-0.224-0.115-0.348c-0.156-0.292-0.279-0.622-0.373-0.992c-0.09-0.37-0.137-0.764-0.137-1.18
	c0-0.546,0.059-1.008,0.174-1.385c0.117-0.378,0.275-0.686,0.475-0.923c0.199-0.238,0.434-0.411,0.701-0.519
	c0.268-0.109,0.555-0.163,0.861-0.163c0.305,0,0.588,0.053,0.855,0.158c0.27,0.105,0.502,0.275,0.707,0.51
	c0.201,0.235,0.361,0.544,0.477,0.924c0.117,0.38,0.176,0.847,0.176,1.397c0,0.406-0.047,0.79-0.135,1.155
	c-0.09,0.365-0.213,0.693-0.369,0.985c-0.043,0.134-0.084,0.261-0.121,0.38c-0.033,0.104-0.063,0.202-0.09,0.295
	C25.463,16.229,25.447,16.298,25.447,16.341z"/>
<path opacity="0.5" fill="#CCCCCC" d="M9.249,16.341v0.949c0.172,0.074,0.37,0.162,0.591,0.258c0.222,0.098,0.449,0.197,0.684,0.301
	c0.236,0.102,0.474,0.204,0.713,0.308c0.24,0.103,0.469,0.198,0.685,0.288c0.216,0.088,0.41,0.168,0.583,0.239
	c0.174,0.07,0.313,0.123,0.422,0.16c0.227,0.083,0.411,0.206,0.551,0.37c0.14,0.164,0.251,0.333,0.332,0.507
	c0.097,0.198,0.167,0.409,0.211,1.661v1.801h-12.6v-2.83c0.049-0.223,0.121-0.434,0.218-0.632c0.081-0.174,0.191-0.343,0.332-0.507
	s0.321-0.287,0.543-0.37c0.113-0.037,0.262-0.091,0.446-0.165c0.184-0.072,0.389-0.156,0.616-0.252
	c0.227-0.093,0.466-0.195,0.718-0.304c0.25-0.107,0.501-0.214,0.749-0.323c0.249-0.109,0.484-0.211,0.705-0.309
	c0.223-0.098,0.417-0.184,0.583-0.26V16.31c-0.01-0.045-0.028-0.109-0.052-0.199c-0.024-0.09-0.05-0.18-0.077-0.272
	c-0.032-0.107-0.07-0.224-0.113-0.348c-0.157-0.292-0.281-0.622-0.373-0.992c-0.092-0.37-0.138-0.764-0.138-1.18
	c0-0.546,0.059-1.008,0.174-1.385c0.116-0.378,0.274-0.686,0.474-0.923c0.2-0.238,0.434-0.411,0.701-0.519
	c0.268-0.109,0.555-0.163,0.863-0.163c0.303,0,0.587,0.053,0.854,0.158s0.502,0.275,0.706,0.51c0.202,0.235,0.361,0.544,0.478,0.924
	c0.116,0.38,0.174,0.847,0.174,1.397c0,0.406-0.045,0.79-0.133,1.155c-0.089,0.365-0.212,0.693-0.369,0.985
	c-0.043,0.134-0.083,0.261-0.121,0.38c-0.033,0.104-0.063,0.202-0.089,0.295C9.262,16.229,9.249,16.298,9.249,16.341z"/>
<path fill="#FFFFFF" d="M18.439,17.241v1.625c0.295,0.129,0.635,0.277,1.014,0.445c0.379,0.165,0.771,0.338,1.174,0.514
	c0.402,0.177,0.811,0.352,1.223,0.528c0.412,0.176,0.803,0.339,1.174,0.494c0.369,0.151,0.703,0.286,1,0.407
	s0.537,0.213,0.721,0.278c0.391,0.139,0.705,0.35,0.947,0.633c0.24,0.282,0.43,0.569,0.568,0.868
	c0.166,0.343,0.287,0.703,0.361,1.083v1.765h-21.6v-1.765c0.083-0.38,0.208-0.74,0.374-1.083c0.139-0.299,0.329-0.586,0.57-0.868
	c0.241-0.283,0.55-0.494,0.93-0.633c0.195-0.065,0.45-0.158,0.764-0.284c0.315-0.125,0.667-0.27,1.056-0.432
	c0.389-0.162,0.799-0.336,1.229-0.52c0.43-0.188,0.859-0.371,1.284-0.557c0.426-0.186,0.829-0.359,1.208-0.527
	c0.381-0.168,0.713-0.316,1-0.443v-1.584c-0.018-0.074-0.049-0.188-0.09-0.342c-0.042-0.152-0.086-0.307-0.132-0.465
	c-0.055-0.186-0.121-0.384-0.194-0.598c-0.269-0.5-0.481-1.066-0.639-1.701c-0.158-0.635-0.236-1.309-0.236-2.021
	c0-0.936,0.1-1.728,0.299-2.375c0.199-0.649,0.47-1.177,0.813-1.584c0.342-0.408,0.743-0.704,1.202-0.889
	c0.458-0.187,0.951-0.278,1.478-0.278c0.52,0,1.008,0.09,1.466,0.271c0.459,0.181,0.861,0.472,1.209,0.875
	c0.348,0.404,0.619,0.932,0.82,1.585c0.197,0.651,0.297,1.452,0.297,2.396c0,0.695-0.076,1.354-0.229,1.979
	c-0.154,0.626-0.363,1.188-0.631,1.689c-0.076,0.229-0.145,0.446-0.209,0.651c-0.057,0.177-0.107,0.346-0.154,0.506
	C18.463,17.049,18.439,17.169,18.439,17.241z"/>
</svg>
