<?xml version="1.0" encoding="utf-8"?>
<!-- Generator: Adobe Illustrator 16.2.0, SVG Export Plug-In . SVG Version: 6.00 Build 0)  -->
<!DOCTYPE svg PUBLIC "-//W3C//DTD SVG 1.1//EN" "http://www.w3.org/Graphics/SVG/1.1/DTD/svg11.dtd">
<svg version="1.1" id="Layer_1" xmlns="http://www.w3.org/2000/svg" xmlns:xlink="http://www.w3.org/1999/xlink" x="0px" y="0px"
	 width="32px" height="32px" viewBox="0 0 32 32" enable-background="new 0 0 32 32" xml:space="preserve">
<path fill="none" d="M30.821,26.408c0,2.762-2.239,5-5,5h-20c-2.762,0-5-2.238-5-5v-20c0-2.761,2.238-5,5-5h20c2.761,0,5,2.238,5,5
	V26.408z"/>
<path fill="#993333" d="M26.821,7.908c-1,0-22,0-22,0s-1,0-1,1s0,15,0,15s0,1,1,1s22,0,22,0s1,0,1-1s0-15,0-15
	S27.821,7.908,26.821,7.908z M10.321,10.908c1.381,0,2.5,1.119,2.5,2.5s-1.119,2.5-2.5,2.5s-2.5-1.119-2.5-2.5
	S8.94,10.908,10.321,10.908z M13.803,21.908H6.839c0,0-1.018-5,3.482-5S13.803,21.908,13.803,21.908z M24.321,21.908h-7
	c-0.273,0-0.5-0.225-0.5-0.5s0.227-0.5,0.5-0.5h7c0.275,0,0.5,0.225,0.5,0.5S24.597,21.908,24.321,21.908z M24.321,19.908h-7
	c-0.273,0-0.5-0.225-0.5-0.5s0.227-0.5,0.5-0.5h7c0.275,0,0.5,0.225,0.5,0.5S24.597,19.908,24.321,19.908z M24.321,17.908h-7
	c-0.273,0-0.5-0.225-0.5-0.5s0.227-0.5,0.5-0.5h7c0.275,0,0.5,0.225,0.5,0.5S24.597,17.908,24.321,17.908z M24.321,15.908h-7
	c-0.273,0-0.5-0.225-0.5-0.5s0.227-0.5,0.5-0.5h7c0.275,0,0.5,0.225,0.5,0.5S24.597,15.908,24.321,15.908z M24.321,13.908h-7
	c-0.273,0-0.5-0.225-0.5-0.5s0.227-0.5,0.5-0.5h7c0.275,0,0.5,0.225,0.5,0.5S24.597,13.908,24.321,13.908z M24.321,11.908h-7
	c-0.273,0-0.5-0.225-0.5-0.5s0.227-0.5,0.5-0.5h7c0.275,0,0.5,0.225,0.5,0.5S24.597,11.908,24.321,11.908z"/>
</svg>
