<?xml version="1.0" encoding="utf-8"?>
<!-- Generator: Adobe Illustrator 16.2.0, SVG Export Plug-In . SVG Version: 6.00 Build 0)  -->
<!DOCTYPE svg PUBLIC "-//W3C//DTD SVG 1.1//EN" "http://www.w3.org/Graphics/SVG/1.1/DTD/svg11.dtd">
<svg version="1.1" id="Layer_1" xmlns="http://www.w3.org/2000/svg" xmlns:xlink="http://www.w3.org/1999/xlink" x="0px" y="0px"
	 width="32px" height="32px" viewBox="0 0 32 32" enable-background="new 0 0 32 32" xml:space="preserve">
<path fill="none" d="M30.821,26.408c0,2.762-2.239,5-5,5h-20c-2.762,0-5-2.238-5-5v-20c0-2.761,2.238-5,5-5h20c2.761,0,5,2.238,5,5
	V26.408z"/>
<path fill="#CB2128" d="M13.437,21.51c-0.657,3.441-1.458,6.741-3.833,8.465c-0.733-5.202,1.077-9.109,1.917-13.257
	c-1.433-2.412,0.172-7.266,3.194-6.069c3.719,1.471-3.22,8.967,1.438,9.902c4.863,0.978,6.849-8.438,3.833-11.5
	C15.628,4.63,7.302,8.951,8.326,15.28c0.249,1.548,1.848,2.017,0.639,4.153c-2.789-0.619-3.621-2.818-3.514-5.75
	c0.172-4.799,4.313-8.16,8.465-8.625c5.252-0.588,10.18,1.928,10.861,6.868c0.766,5.576-2.371,11.615-7.986,11.18
	C15.269,22.988,14.63,22.234,13.437,21.51z"/>
</svg>
