<?xml version="1.0" encoding="utf-8"?>
<!-- Generator: Adobe Illustrator 16.2.0, SVG Export Plug-In . SVG Version: 6.00 Build 0)  -->
<!DOCTYPE svg PUBLIC "-//W3C//DTD SVG 1.1//EN" "http://www.w3.org/Graphics/SVG/1.1/DTD/svg11.dtd">
<svg version="1.1" id="Layer_1" xmlns="http://www.w3.org/2000/svg" xmlns:xlink="http://www.w3.org/1999/xlink" x="0px" y="0px"
	 width="32px" height="32px" viewBox="0 0 32 32" enable-background="new 0 0 32 32" xml:space="preserve">
<path fill="none" d="M30.821,26.408c0,2.762-2.239,5-5,5h-20c-2.762,0-5-2.238-5-5v-20c0-2.761,2.238-5,5-5h20c2.761,0,5,2.238,5,5
	V26.408z"/>
<g>
	<path fill="#FFFFFF" d="M25.821,3.772h-20c-1.104,0-2,0.896-2,2v17.999c0,1.104,0.896,2,2,2h5.999l4,4l4-4h6c1.105,0,2-0.896,2-2
		V5.772C27.821,4.668,26.927,3.772,25.821,3.772z M15.614,6.772c2.008,0,3.635,1.627,3.635,3.637c0,2.008-1.627,3.637-3.635,3.637
		c-2.009,0-3.637-1.629-3.637-3.637C11.977,8.399,13.605,6.772,15.614,6.772z M20.679,22.771H10.547c0,0-1.479-7.272,5.066-7.272
		C22.159,15.499,20.679,22.771,20.679,22.771z"/>
</g>
</svg>
