<?xml version="1.0" encoding="utf-8"?>
<!-- Generator: Adobe Illustrator 16.2.0, SVG Export Plug-In . SVG Version: 6.00 Build 0)  -->
<!DOCTYPE svg PUBLIC "-//W3C//DTD SVG 1.1//EN" "http://www.w3.org/Graphics/SVG/1.1/DTD/svg11.dtd">
<svg version="1.1" id="Layer_1" xmlns="http://www.w3.org/2000/svg" xmlns:xlink="http://www.w3.org/1999/xlink" x="0px" y="0px"
	 width="32px" height="32px" viewBox="0 0 32 32" enable-background="new 0 0 32 32" xml:space="preserve">
<path fill="none" d="M30.821,26.408c0,2.762-2.239,5-5,5h-20c-2.762,0-5-2.238-5-5v-20c0-2.761,2.238-5,5-5h20c2.761,0,5,2.238,5,5
	V26.408z"/>
<path fill="#FFFFFF" d="M21.82,5.771H9.823c-3.302,0-6,2.7-6,6v4c0,3.3,2.698,6.001,6,6.001h0.997v6l6.858-6h4.143
	c3.301,0,6-2.701,6-6.001v-4C27.82,8.471,25.121,5.771,21.82,5.771z M9.82,15.771c-1.103,0-2-0.896-2-2s0.897-2,2-2
	c1.106,0,2,0.896,2,2S10.926,15.771,9.82,15.771z M15.82,15.771c-1.103,0-2-0.896-2-2s0.897-2,2-2c1.106,0,2,0.896,2,2
	S16.926,15.771,15.82,15.771z M21.82,15.771c-1.105,0-2-0.896-2-2s0.895-2,2-2s2,0.896,2,2S22.926,15.771,21.82,15.771z"/>
</svg>
