<?xml version="1.0" encoding="utf-8"?>
<!-- Generator: Adobe Illustrator 16.2.0, SVG Export Plug-In . SVG Version: 6.00 Build 0)  -->
<!DOCTYPE svg PUBLIC "-//W3C//DTD SVG 1.1//EN" "http://www.w3.org/Graphics/SVG/1.1/DTD/svg11.dtd">
<svg version="1.1" id="Layer_1" xmlns="http://www.w3.org/2000/svg" xmlns:xlink="http://www.w3.org/1999/xlink" x="0px" y="0px"
	 width="32px" height="32px" viewBox="0 0 32 32" enable-background="new 0 0 32 32" xml:space="preserve">
<path fill="none" d="M30.821,26.408c0,2.762-2.239,5-5,5h-20c-2.762,0-5-2.238-5-5v-20c0-2.761,2.238-5,5-5h20c2.761,0,5,2.238,5,5
	V26.408z"/>
<g>
	<path fill="#FFFFFF" d="M26.899,14.562h-1.107c-0.508,0-1.047-0.396-1.197-0.882l-0.637-1.546
		c-0.238-0.446-0.141-1.107,0.217-1.466l0.787-0.785c0.359-0.36,0.359-0.947,0-1.307l-1.309-1.305c-0.357-0.359-0.945-0.359-1.305,0
		l-0.787,0.786c-0.357,0.359-1.02,0.457-1.467,0.216l-1.543-0.635c-0.484-0.15-0.883-0.689-0.883-1.197V5.332
		c0-0.507-0.416-0.924-0.924-0.924h-1.846c-0.508,0-0.924,0.417-0.924,0.924V6.44c0,0.508-0.396,1.047-0.881,1.197l-1.545,0.635
		c-0.449,0.241-1.107,0.144-1.467-0.216L9.295,7.271c-0.359-0.359-0.945-0.359-1.305,0L6.686,8.576
		c-0.361,0.359-0.361,0.947,0,1.306l0.783,0.786c0.359,0.359,0.459,1.02,0.217,1.466l-0.635,1.547
		c-0.152,0.485-0.689,0.882-1.197,0.882l-1.109-0.001c-0.508,0-0.924,0.416-0.924,0.923v1.845c0,0.508,0.416,0.924,0.924,0.924
		h1.109c0.508,0.002,1.045,0.398,1.195,0.883l0.637,1.547c0.241,0.447,0.143,1.109-0.217,1.467l-0.785,0.785
		c-0.359,0.359-0.359,0.945,0,1.307l1.307,1.305c0.359,0.359,0.945,0.359,1.305,0l0.787-0.785c0.358-0.357,1.018-0.455,1.463-0.215
		l1.549,0.637c0.484,0.15,0.881,0.689,0.881,1.197v1.105c0,0.506,0.416,0.922,0.924,0.922h1.846c0.508,0,0.924-0.416,0.924-0.922
		v-1.105c0-0.508,0.398-1.047,0.883-1.197l1.547-0.637c0.447-0.24,1.107-0.143,1.467,0.215l0.783,0.785
		c0.359,0.359,0.947,0.359,1.305,0l1.309-1.305c0.359-0.361,0.359-0.947,0-1.307l-0.787-0.785c-0.357-0.357-0.455-1.02-0.217-1.467
		l0.637-1.547c0.15-0.484,0.691-0.881,1.197-0.881h1.107c0.508,0,0.922-0.416,0.922-0.924v-1.847
		C27.821,14.977,27.407,14.562,26.899,14.562z M20.44,16.407c0,2.55-2.066,4.615-4.615,4.615c-2.551,0-4.618-2.064-4.618-4.615
		c0-2.549,2.066-4.615,4.618-4.615C18.374,11.792,20.44,13.858,20.44,16.407z"/>
</g>
</svg>
