<?xml version="1.0" encoding="utf-8"?>
<!-- Generator: Adobe Illustrator 16.2.0, SVG Export Plug-In . SVG Version: 6.00 Build 0)  -->
<!DOCTYPE svg PUBLIC "-//W3C//DTD SVG 1.1//EN" "http://www.w3.org/Graphics/SVG/1.1/DTD/svg11.dtd">
<svg version="1.1" id="Layer_1" xmlns="http://www.w3.org/2000/svg" xmlns:xlink="http://www.w3.org/1999/xlink" x="0px" y="0px"
	 width="32px" height="32px" viewBox="0 0 32 32" enable-background="new 0 0 32 32" xml:space="preserve">
<path fill="none" d="M30.821,26.408c0,2.762-2.239,5-5,5h-20c-2.762,0-5-2.238-5-5v-20c0-2.761,2.238-5,5-5h20c2.761,0,5,2.238,5,5
	V26.408z"/>
<path fill="#27AAE1" d="M27.68,9.34c-0.847,0.375-1.756,0.629-2.711,0.743c0.975-0.584,1.723-1.509,2.076-2.611
	c-0.912,0.541-1.922,0.934-2.997,1.146c-0.86-0.917-2.087-1.49-3.444-1.49c-2.605,0-4.719,2.112-4.719,4.719
	c0,0.37,0.042,0.729,0.122,1.075c-3.921-0.197-7.399-2.075-9.726-4.931c-0.406,0.697-0.639,1.508-0.639,2.373
	c0,1.637,0.833,3.081,2.099,3.927c-0.773-0.024-1.501-0.236-2.137-0.59c0,0.02,0,0.039,0,0.06c0,2.286,1.627,4.193,3.785,4.627
	c-0.396,0.107-0.813,0.165-1.243,0.165c-0.304,0-0.599-0.029-0.888-0.084c0.601,1.874,2.344,3.238,4.408,3.276
	c-1.615,1.267-3.649,2.021-5.86,2.021c-0.381,0-0.756-0.022-1.125-0.066c2.088,1.339,4.568,2.121,7.233,2.121
	c8.679,0,13.426-7.191,13.426-13.427c0-0.204-0.005-0.408-0.014-0.611C26.247,11.118,27.047,10.287,27.68,9.34z"/>
</svg>
