<?xml version="1.0" encoding="utf-8"?>
<!-- Generator: Adobe Illustrator 16.2.0, SVG Export Plug-In . SVG Version: 6.00 Build 0)  -->
<!DOCTYPE svg PUBLIC "-//W3C//DTD SVG 1.1//EN" "http://www.w3.org/Graphics/SVG/1.1/DTD/svg11.dtd">
<svg version="1.1" id="Layer_1" xmlns="http://www.w3.org/2000/svg" xmlns:xlink="http://www.w3.org/1999/xlink" x="0px" y="0px"
	 width="32px" height="32px" viewBox="0 0 32 32" enable-background="new 0 0 32 32" xml:space="preserve">
<path fill="none" d="M30.821,26.408c0,2.762-2.239,5-5,5h-20c-2.762,0-5-2.238-5-5v-20c0-2.761,2.238-5,5-5h20c2.761,0,5,2.238,5,5
	V26.408z"/>
<g>
	<path opacity="0.7" fill="#993333" d="M28.5,27.474c0,0-0.049-4.733-0.338-5.224c-0.431-0.73-1.433-1.233-3.293-2.011
		c-1.854-0.774-2.447-1.429-2.447-2.829c0-0.841,0.566-0.565,0.815-2.104c0.103-0.639,0.603-0.011,0.698-1.468
		c0-0.581-0.272-0.726-0.272-0.726s0.139-0.859,0.192-1.521c0.068-0.824-0.415-2.954-2.988-2.954c-2.574,0-3.057,2.129-2.988,2.954
		c0.054,0.662,0.191,1.521,0.191,1.521s-0.271,0.145-0.271,0.726c0.096,1.457,0.595,0.829,0.698,1.468
		c0.249,1.539,0.815,1.264,0.815,2.104c0,0.952-0.275,1.559-1.035,2.094c4.051,2.027,4.594,2.441,4.594,4.254v3.716H28.5z"/>
	<path fill="#993333" d="M16.279,20.943c-2.473-1.033-3.263-1.905-3.263-3.771c0-1.121,0.755-0.755,1.086-2.807
		c0.137-0.851,0.804-0.014,0.932-1.958c0-0.774-0.364-0.967-0.364-0.967s0.185-1.146,0.257-2.028
		c0.09-1.099-0.554-3.938-3.985-3.938c-3.431,0-4.075,2.84-3.985,3.938c0.072,0.882,0.257,2.028,0.257,2.028
		s-0.364,0.192-0.364,0.967c0.128,1.943,0.794,1.106,0.932,1.958c0.332,2.052,1.086,1.686,1.086,2.807
		c0,1.866-0.791,2.738-3.263,3.771C4.854,21.258,3.5,21.746,3.5,22.92v4.554h17.367c0,0,0-2.694,0-3.415
		C20.867,22.988,18.76,21.98,16.279,20.943z"/>
</g>
</svg>
