<?xml version="1.0" encoding="utf-8"?>
<!-- Generator: Adobe Illustrator 16.2.0, SVG Export Plug-In . SVG Version: 6.00 Build 0)  -->
<!DOCTYPE svg PUBLIC "-//W3C//DTD SVG 1.1//EN" "http://www.w3.org/Graphics/SVG/1.1/DTD/svg11.dtd">
<svg version="1.1" id="Layer_1" xmlns="http://www.w3.org/2000/svg" xmlns:xlink="http://www.w3.org/1999/xlink" x="0px" y="0px"
	 width="260px" height="70px" viewBox="0 0 260 70" enable-background="new 0 0 260 70" xml:space="preserve">
<g>
	<rect x="7.631" y="39.294" fill="none" stroke="#993333" stroke-width="2" stroke-miterlimit="10" width="244.999" height="2"/>
	<g>
		<path fill="#FFFFFF" d="M20.405,4.95l1.89-2.708h1.533l0.126,11.317h-1.386c-0.868-3.471-2.152-6.005-3.853-7.601
			c-1.701-1.596-3.657-2.394-5.869-2.394c-1.848,0-3.359,0.553-4.535,1.66S6.547,7.684,6.547,9.281c0,0.995,0.224,1.867,0.671,2.616
			c0.447,0.75,1.115,1.359,2.003,1.828c0.888,0.47,2.565,0.969,5.029,1.498c3.458,0.752,5.884,1.513,7.277,2.283
			c1.393,0.77,2.432,1.739,3.118,2.908c0.686,1.169,1.029,2.538,1.029,4.105c0,2.8-0.941,5.12-2.824,6.96
			c-1.882,1.84-4.314,2.761-7.296,2.761c-3.206,0-5.991-1.036-8.356-3.107L4.826,34.03H3.314V21.999h1.512
			c0.588,3.317,1.903,5.935,3.947,7.853c2.043,1.918,4.346,2.876,6.908,2.876c2.071,0,3.762-0.612,5.07-1.837
			c1.309-1.225,1.963-2.712,1.963-4.462c0-0.994-0.245-1.865-0.735-2.614c-0.49-0.749-1.267-1.378-2.331-1.89
			c-1.064-0.511-3.157-1.13-6.278-1.858c-3.43-0.812-5.767-1.722-7.013-2.729c-1.75-1.428-2.625-3.45-2.625-6.068
			c0-2.729,0.872-4.966,2.614-6.708c1.743-1.743,3.972-2.614,6.688-2.614c1.302,0,2.541,0.231,3.716,0.693S19.145,3.873,20.405,4.95
			z"/>
		<path fill="#FFFFFF" d="M44.067,1.948c2.617,0,5.07,0.689,7.359,2.068c2.288,1.378,4.08,3.303,5.375,5.773
			c1.294,2.471,1.942,5.253,1.942,8.346c0,3.094-0.651,5.886-1.953,8.377c-1.302,2.492-3.09,4.434-5.364,5.826
			c-2.275,1.393-4.686,2.089-7.233,2.089c-2.492,0-4.829-0.682-7.013-2.047c-2.184-1.364-3.937-3.317-5.26-5.857
			c-1.322-2.541-1.984-5.357-1.984-8.451c0-3.051,0.64-5.806,1.921-8.262c1.28-2.457,3.034-4.381,5.259-5.774
			C39.343,2.644,41.66,1.948,44.067,1.948z M44.403,3.564c-2.729,0-4.941,1.134-6.635,3.401c-1.694,2.268-2.541,5.963-2.541,11.086
			c0,5.557,0.868,9.399,2.604,11.527c1.735,2.128,3.884,3.191,6.446,3.191c1.792,0,3.366-0.483,4.724-1.449
			c1.357-0.966,2.439-2.499,3.244-4.598c0.805-2.1,1.208-4.857,1.208-8.272c0-3.723-0.378-6.631-1.134-8.724
			c-0.756-2.093-1.834-3.643-3.233-4.651C47.686,4.068,46.125,3.564,44.403,3.564z"/>
		<path fill="#FFFFFF" d="M62.208,2.599h14.34v1.575h-2.876c-0.77,0-1.309,0.126-1.617,0.378c-0.308,0.252-0.462,0.637-0.462,1.155
			v17.532c0,1.834,0.161,3.22,0.482,4.157c0.475,1.386,1.345,2.492,2.61,3.317c1.265,0.826,2.918,1.239,4.959,1.239
			c2.824,0,4.977-0.731,6.458-2.194c1.482-1.463,2.223-3.419,2.223-5.869V9.632c0-1.26-0.087-2.215-0.262-2.866
			c-0.175-0.65-0.427-1.158-0.756-1.522c-0.329-0.364-0.746-0.633-1.25-0.808c-0.504-0.175-1.344-0.263-2.52-0.263V2.599h11.737
			v1.575h-0.84c-1.316,0-2.296,0.354-2.939,1.061c-0.644,0.707-0.966,1.732-0.966,3.076v15.264c0,3.332-0.952,5.886-2.855,7.664
			c-2.142,2.002-4.99,3.002-8.545,3.002c-3.08,0-5.501-0.438-7.265-1.313c-1.764-0.875-3.044-2.131-3.842-3.769
			c-0.602-1.246-0.903-2.813-0.903-4.703V5.706c0-0.476-0.164-0.85-0.491-1.124c-0.328-0.272-0.819-0.409-1.474-0.409h-2.948V2.599z
			"/>
		<path fill="#FFFFFF" d="M97.985,2.599h25.216l0.609,11.737h-1.449c-0.953-6.9-3.451-10.351-7.491-10.351
			c-0.813,0-1.371,0.14-1.672,0.42c-0.302,0.28-0.453,0.742-0.453,1.386v24.817c0,0.504,0.147,0.875,0.441,1.113
			c0.294,0.238,0.777,0.357,1.449,0.357h3.128v1.575h-14.424v-1.575h3.569c0.476,0,0.84-0.119,1.092-0.357
			c0.252-0.238,0.378-0.553,0.378-0.945V5.601c0-0.532-0.161-0.935-0.483-1.207c-0.322-0.273-0.84-0.41-1.554-0.41
			c-2.03,0-3.724,0.959-5.081,2.876c-1.12,1.582-1.925,4.073-2.415,7.475h-1.533L97.985,2.599z"/>
		<path fill="#FFFFFF" d="M126.792,2.599h13.27v1.575h-2.436c-0.854,0-1.41,0.15-1.669,0.451c-0.26,0.301-0.389,1.033-0.389,2.194
			v9.574h14.193V6.819c0-1.204-0.123-1.945-0.367-2.226c-0.245-0.28-0.822-0.42-1.732-0.42h-2.268V2.599h13.186v1.575h-2.415
			c-0.602,0-1.025,0.077-1.27,0.231c-0.245,0.154-0.444,0.42-0.599,0.798c-0.084,0.238-0.126,0.861-0.126,1.869v22.34
			c0,1.078,0.091,1.729,0.273,1.953c0.363,0.476,1.028,0.714,1.994,0.714h2.142v1.575h-13.186v-1.575h2.268
			c0.896,0,1.505-0.245,1.827-0.735c0.182-0.266,0.272-0.966,0.272-2.1V18.451h-14.193v10.96c0,1.092,0.084,1.75,0.252,1.974
			c0.35,0.462,0.952,0.693,1.806,0.693h2.436v1.575h-13.27v-1.575h2.541c0.447,0,0.805-0.091,1.07-0.273
			c0.266-0.182,0.462-0.441,0.588-0.777c0.07-0.224,0.105-0.819,0.105-1.785V6.819c0-1.162-0.13-1.893-0.389-2.194
			c-0.26-0.301-0.822-0.451-1.69-0.451h-2.226V2.599z"/>
		<path fill="#FFFFFF" d="M163.409,2.599h24.607l0.588,10.477h-1.407c-0.559-3.303-1.442-5.613-2.652-6.929
			c-1.209-1.315-2.784-1.974-4.728-1.974h-6.08c-0.489,0-0.86,0.133-1.111,0.399c-0.252,0.266-0.378,0.672-0.378,1.218v11.065h2.659
			c1.424,0,2.579-0.511,3.466-1.533c0.886-1.021,1.364-2.589,1.434-4.703h1.449v14.382h-1.449c-0.069-2.379-0.555-4.084-1.455-5.112
			c-0.9-1.029-2.125-1.543-3.675-1.543h-2.429v12.346c0,0.448,0.15,0.791,0.451,1.029c0.301,0.238,0.8,0.357,1.499,0.357H179
			c5.214,0,8.22-3.331,9.017-9.994h1.512l-0.524,11.569h-25.595v-1.575h2.12c0.826,0,1.407-0.144,1.743-0.43
			c0.336-0.287,0.504-0.704,0.504-1.25V5.79c0-0.546-0.147-0.952-0.44-1.218c-0.295-0.266-0.756-0.399-1.387-0.399h-2.54V2.599z"/>
		<path fill="#FFFFFF" d="M192.74,2.599h16.041c3.107,0,5.519,0.707,7.233,2.121c1.714,1.414,2.571,3.269,2.571,5.564
			c0,1.372-0.339,2.593-1.018,3.664c-0.68,1.071-1.659,1.925-2.939,2.562c-1.281,0.637-3.293,1.096-6.037,1.375
			c1.997,0.546,3.372,1.082,4.126,1.606c0.754,0.525,1.357,1.204,1.812,2.037c0.454,0.833,0.979,2.53,1.572,5.091
			c0.425,1.834,0.875,3.086,1.352,3.758c0.363,0.518,0.756,0.777,1.176,0.777c0.434,0,0.836-0.318,1.207-0.956
			c0.37-0.637,0.598-1.76,0.682-3.37h1.428c-0.266,4.759-2.022,7.139-5.27,7.139c-1.021,0-1.907-0.259-2.656-0.777
			s-1.313-1.281-1.689-2.289c-0.295-0.756-0.623-2.736-0.987-5.942c-0.21-1.861-0.543-3.184-0.997-3.968
			c-0.455-0.784-1.166-1.414-2.131-1.89c-0.967-0.476-2.121-0.714-3.465-0.714h-2.541v12.199c0,0.518,0.134,0.882,0.399,1.092
			c0.336,0.266,0.86,0.399,1.575,0.399h2.98v1.575H192.74v-1.575h3.045c0.672,0,1.165-0.133,1.479-0.399
			c0.315-0.266,0.473-0.63,0.473-1.092V5.769c0-0.532-0.161-0.931-0.483-1.197c-0.321-0.266-0.812-0.399-1.469-0.399h-3.045V2.599z
			 M202.209,16.876h3.675c2.464,0,4.392-0.464,5.784-1.394c1.393-0.929,2.09-2.582,2.09-4.957c0-1.635-0.263-2.928-0.788-3.878
			c-0.524-0.95-1.214-1.6-2.067-1.949c-0.854-0.35-2.534-0.524-5.039-0.524c-1.652,0-2.674,0.115-3.066,0.346
			c-0.392,0.23-0.588,0.625-0.588,1.184V16.876z"/>
		<path fill="#FFFFFF" d="M224.466,2.599h7.412l18.729,24.397V9.338c0-1.777-0.406-3.093-1.219-3.947
			c-0.741-0.784-1.848-1.189-3.316-1.218V2.599h10.875v1.575c-1.11,0-1.94,0.154-2.489,0.462c-0.548,0.308-1.026,0.868-1.434,1.68
			c-0.408,0.812-0.612,1.701-0.612,2.667v24.67h-1.973l-19.38-25.4v18.741c0,1.695,0.427,2.959,1.28,3.792
			c0.854,0.833,2.177,1.264,3.969,1.292v1.575h-11.842v-1.575c1.483-0.056,2.659-0.542,3.527-1.457s1.302-2.037,1.302-3.365V6.226
			l-0.369-0.405c-0.699-0.762-1.195-1.213-1.488-1.353c-0.405-0.196-0.928-0.294-1.569-0.294h-1.402V2.599z"/>
	</g>
	<g>
		<path fill="#FFFFFF" d="M14.816,46.238h0.916l7.251,18.498c0.292,0.746,0.889,1.121,1.791,1.121h0.629v1.025h-8.066v-1.025h0.643
			c0.838,0,1.431-0.092,1.777-0.273c0.237-0.129,0.355-0.324,0.355-0.588c0-0.156-0.032-0.32-0.096-0.492l-1.673-4.293h-7.998
			l-0.939,2.461c-0.246,0.656-0.369,1.176-0.369,1.559c0,0.445,0.207,0.828,0.622,1.148c0.415,0.318,1.019,0.479,1.812,0.479h0.684
			v1.025H4.827v-1.025c0.784,0,1.403-0.172,1.859-0.514s0.875-0.99,1.258-1.947L14.816,46.238z M14.418,50.135l-3.63,9.01h7.141
			L14.418,50.135z"/>
		<path fill="#FFFFFF" d="M31.009,46.43v18.566c0,0.254,0.077,0.451,0.232,0.588c0.228,0.182,0.506,0.273,0.834,0.273h1.354v1.025
			h-7.26v-1.025h1.285c0.419,0,0.731-0.102,0.937-0.301c0.205-0.201,0.308-0.484,0.308-0.848V49.123
			c0-0.456-0.123-0.789-0.369-0.998c-0.337-0.292-0.752-0.438-1.244-0.438h-1.148v-1.025L31.009,46.43z"/>
		<path fill="#FFFFFF" d="M39.376,53.84v8.49c0,1.039,0.262,1.84,0.784,2.406c0.523,0.564,1.199,0.848,2.026,0.848
			c1.019,0,1.885-0.412,2.599-1.238c0.714-0.824,1.071-1.856,1.071-3.096v-4.799c0-0.438-0.157-0.777-0.472-1.02
			c-0.314-0.24-0.918-0.375-1.812-0.402v-0.957l4.498-0.232v10.514c0,0.482,0.137,0.854,0.41,1.113s0.656,0.391,1.148,0.391h0.807
			v0.916l-4.307,0.096l-0.273-2.516c-0.765,0.902-1.534,1.58-2.307,2.037c-0.773,0.455-1.556,0.684-2.348,0.684
			c-1.156,0-2.125-0.389-2.908-1.162c-0.792-0.766-1.188-2.064-1.188-3.896v-5.564c0-0.492-0.196-0.866-0.588-1.121
			c-0.273-0.183-0.834-0.283-1.682-0.301v-0.957L39.376,53.84z"/>
		<path fill="#FFFFFF" d="M52.884,54.072l3.664-0.232c0.2,0.952,0.333,1.859,0.396,2.722c0.694-0.998,1.388-1.701,2.082-2.11
			c0.694-0.408,1.456-0.611,2.287-0.611c0.885,0,1.616,0.23,2.191,0.693c0.575,0.464,1.018,1.217,1.328,2.262
			c0.61-0.99,1.288-1.73,2.034-2.221s1.561-0.734,2.443-0.734c1.165,0,2.039,0.346,2.622,1.039c0.746,0.911,1.119,2.087,1.119,3.527
			v6.357c0,0.383,0.096,0.643,0.287,0.779c0.255,0.209,0.633,0.314,1.135,0.314h0.643v1.025h-6.439v-1.025h0.643
			c0.547,0,0.93-0.092,1.148-0.273c0.219-0.184,0.328-0.457,0.328-0.822v-6.365c0-0.949-0.232-1.684-0.696-2.205
			c-0.464-0.52-1.073-0.779-1.828-0.779c-0.573,0-1.091,0.152-1.555,0.458s-0.828,0.741-1.091,1.308
			c-0.391,0.813-0.586,1.502-0.586,2.066v5.518c0,0.375,0.1,0.65,0.301,0.828c0.2,0.178,0.51,0.268,0.93,0.268h0.875v1.025h-6.535
			v-1.025h0.738c0.465,0,0.811-0.092,1.039-0.273c0.228-0.184,0.342-0.416,0.342-0.697V58.98c0-1.249-0.221-2.156-0.663-2.721
			c-0.442-0.565-1.037-0.848-1.784-0.848c-0.966,0-1.709,0.328-2.229,0.984c-0.738,0.93-1.107,2.014-1.107,3.254v5.113
			c0,0.391,0.086,0.66,0.26,0.807c0.246,0.191,0.629,0.287,1.148,0.287h0.656v1.025h-6.453v-1.025h0.971
			c0.364,0,0.645-0.092,0.841-0.273c0.196-0.184,0.294-0.416,0.294-0.697v-8.395c0-0.465-0.119-0.812-0.355-1.039
			c-0.237-0.229-0.711-0.374-1.422-0.438V54.072z"/>
		<path fill="#FFFFFF" d="M76.987,54.072l4.252-0.26c0.173,0.802,0.301,1.74,0.383,2.816c0.574-0.93,1.251-1.627,2.03-2.092
			s1.661-0.697,2.646-0.697c0.848,0,1.559,0.166,2.133,0.498c0.574,0.334,1.034,0.859,1.381,1.58c0.346,0.72,0.52,1.526,0.52,2.42
			v6.234c0,0.465,0.104,0.795,0.314,0.99c0.209,0.197,0.561,0.295,1.053,0.295h0.902v1.025h-6.754v-1.025h0.643
			c0.602,0,1.021-0.096,1.258-0.287c0.237-0.191,0.355-0.479,0.355-0.861v-5.482c0-1.194-0.183-2.078-0.547-2.652
			c-0.511-0.82-1.285-1.23-2.324-1.23c-1.03,0-1.889,0.414-2.577,1.244c-0.688,0.829-1.032,1.909-1.032,3.24v4.744
			c0,0.465,0.107,0.795,0.321,0.99c0.214,0.197,0.567,0.295,1.06,0.295h0.889v1.025H77.11v-1.025h0.889
			c0.446,0,0.786-0.092,1.019-0.273c0.232-0.184,0.349-0.41,0.349-0.684v-8.271c0-0.547-0.148-0.962-0.444-1.244
			c-0.296-0.283-0.723-0.424-1.278-0.424h-0.656V54.072z"/>
		<path fill="#FFFFFF" d="M93.845,54.072l5.1-0.15v11.02c0,0.301,0.073,0.514,0.219,0.643c0.209,0.182,0.474,0.273,0.793,0.273
			h1.449v1.025h-7.287v-1.025h1.354c0.401,0,0.695-0.098,0.882-0.295c0.187-0.195,0.28-0.48,0.28-0.854v-8.066
			c0-0.511-0.146-0.896-0.438-1.156c-0.292-0.26-0.725-0.389-1.299-0.389h-1.053V54.072z M97.399,46.43
			c0.41,0,0.77,0.154,1.08,0.465c0.31,0.31,0.465,0.674,0.465,1.094c0,0.41-0.15,0.766-0.451,1.066s-0.661,0.451-1.08,0.451
			c-0.419,0-0.782-0.152-1.087-0.459c-0.306-0.305-0.458-0.662-0.458-1.072s0.155-0.771,0.465-1.08
			C96.643,46.584,96.998,46.43,97.399,46.43z"/>
		<path fill="#FFFFFF" d="M118.012,46.238h0.916l7.251,18.498c0.292,0.746,0.889,1.121,1.791,1.121h0.629v1.025h-8.066v-1.025h0.643
			c0.838,0,1.431-0.092,1.777-0.273c0.237-0.129,0.355-0.324,0.355-0.588c0-0.156-0.032-0.32-0.096-0.492l-1.673-4.293h-7.998
			l-0.939,2.461c-0.246,0.656-0.369,1.176-0.369,1.559c0,0.445,0.207,0.828,0.622,1.148c0.415,0.318,1.019,0.479,1.812,0.479h0.684
			v1.025h-7.328v-1.025c0.784,0,1.403-0.172,1.859-0.514s0.875-0.99,1.258-1.947L118.012,46.238z M117.613,50.135l-3.63,9.01h7.141
			L117.613,50.135z"/>
		<path fill="#FFFFFF" d="M130.91,62.057c0.565,1.576,1.215,2.668,1.948,3.273c0.734,0.607,1.639,0.91,2.715,0.91
			c0.992,0,1.756-0.217,2.289-0.65c0.533-0.432,0.801-0.982,0.801-1.646c0-0.383-0.1-0.719-0.295-1.006
			c-0.197-0.287-0.469-0.5-0.814-0.643c-0.348-0.141-1.248-0.348-2.699-0.621c-1.389-0.273-2.355-0.561-2.902-0.861
			c-0.549-0.301-0.975-0.716-1.281-1.244c-0.306-0.529-0.458-1.104-0.458-1.723c0-0.939,0.315-1.791,0.945-2.557
			c0.812-0.976,1.948-1.463,3.409-1.463c1.113,0,2.145,0.351,3.094,1.053l0.904-0.957h0.563l0.355,4.566h-0.916
			c-0.402-1.295-0.945-2.227-1.631-2.797c-0.686-0.568-1.529-0.854-2.533-0.854c-0.869,0-1.549,0.211-2.041,0.635
			c-0.494,0.424-0.74,0.941-0.74,1.553c0,0.537,0.229,0.984,0.684,1.34c0.447,0.364,1.324,0.652,2.631,0.862
			c1.516,0.257,2.502,0.472,2.959,0.646c0.748,0.273,1.326,0.694,1.736,1.264c0.412,0.569,0.617,1.264,0.617,2.084
			c0,1.129-0.445,2.086-1.336,2.869c-0.889,0.783-2.02,1.176-3.387,1.176c-1.27,0-2.447-0.42-3.533-1.258l-1,1.148h-0.726
			l-0.274-5.1H130.91z"/>
		<path fill="#FFFFFF" d="M143.871,62.057c0.565,1.576,1.215,2.668,1.948,3.273c0.733,0.607,1.639,0.91,2.714,0.91
			c0.993,0,1.757-0.217,2.29-0.65c0.533-0.432,0.8-0.982,0.8-1.646c0-0.383-0.099-0.719-0.295-1.006s-0.468-0.5-0.814-0.643
			c-0.348-0.141-1.247-0.348-2.699-0.621c-1.388-0.273-2.355-0.561-2.902-0.861c-0.548-0.301-0.975-0.716-1.28-1.244
			c-0.306-0.529-0.458-1.104-0.458-1.723c0-0.939,0.314-1.791,0.945-2.557c0.812-0.976,1.948-1.463,3.409-1.463
			c1.113,0,2.145,0.351,3.094,1.053l0.904-0.957h0.562l0.355,4.566h-0.916c-0.402-1.295-0.945-2.227-1.63-2.797
			c-0.686-0.568-1.53-0.854-2.534-0.854c-0.868,0-1.549,0.211-2.041,0.635c-0.494,0.424-0.74,0.941-0.74,1.553
			c0,0.537,0.229,0.984,0.685,1.34c0.447,0.364,1.324,0.652,2.63,0.862c1.516,0.257,2.502,0.472,2.959,0.646
			c0.748,0.273,1.327,0.694,1.737,1.264c0.411,0.569,0.616,1.264,0.616,2.084c0,1.129-0.445,2.086-1.335,2.869
			s-2.02,1.176-3.388,1.176c-1.27,0-2.446-0.42-3.532-1.258l-1,1.148h-0.726l-0.273-5.1H143.871z"/>
		<path fill="#FFFFFF" d="M161.33,53.689c1.723,0,3.17,0.621,4.341,1.865s1.757,2.883,1.757,4.916c0,1.403-0.262,2.6-0.786,3.588
			c-0.524,0.99-1.271,1.771-2.242,2.346s-2.017,0.861-3.138,0.861c-1.659,0-3.064-0.629-4.218-1.887s-1.729-2.89-1.729-4.895
			c0-2.015,0.579-3.65,1.736-4.908S159.635,53.689,161.33,53.689z M161.33,54.66c-1.021,0-1.859,0.463-2.516,1.387
			c-0.656,0.926-0.984,2.387-0.984,4.383c0,2.032,0.326,3.518,0.978,4.457c0.651,0.938,1.492,1.408,2.522,1.408
			c1.066,0,1.93-0.471,2.591-1.408c0.661-0.939,0.991-2.475,0.991-4.607c0-1.979-0.326-3.409-0.978-4.293
			C163.283,55.102,162.415,54.66,161.33,54.66z"/>
		<path fill="#FFFFFF" d="M179.076,63.082l0.889,0.26c-0.711,2.615-2.278,3.924-4.703,3.924c-1.777,0-3.231-0.588-4.361-1.764
			s-1.695-2.739-1.695-4.689c0-2.261,0.62-4.014,1.859-5.258s2.698-1.865,4.375-1.865c1.258,0,2.297,0.346,3.117,1.039
			c0.82,0.692,1.23,1.463,1.23,2.311c0,0.51-0.152,0.932-0.458,1.264c-0.306,0.334-0.668,0.5-1.087,0.5
			c-0.41,0-0.757-0.141-1.039-0.423s-0.424-0.622-0.424-1.022c0-0.398,0.155-0.781,0.465-1.145c0.146-0.172,0.219-0.309,0.219-0.408
			c0-0.264-0.178-0.521-0.533-0.771c-0.355-0.249-0.839-0.374-1.449-0.374c-1.112,0-1.955,0.404-2.529,1.215
			c-0.82,1.174-1.23,2.723-1.23,4.643c0,1.83,0.364,3.217,1.094,4.158c0.729,0.943,1.659,1.414,2.789,1.414
			C177.162,66.09,178.319,65.086,179.076,63.082z"/>
		<path fill="#FFFFFF" d="M181.469,54.072l5.1-0.15v11.02c0,0.301,0.073,0.514,0.219,0.643c0.21,0.182,0.474,0.273,0.793,0.273
			h1.449v1.025h-7.287v-1.025h1.354c0.401,0,0.695-0.098,0.882-0.295c0.187-0.195,0.28-0.48,0.28-0.854v-8.066
			c0-0.511-0.146-0.896-0.438-1.156s-0.725-0.389-1.299-0.389h-1.053V54.072z M185.023,46.43c0.41,0,0.771,0.154,1.08,0.465
			c0.31,0.31,0.465,0.674,0.465,1.094c0,0.41-0.15,0.766-0.451,1.066s-0.661,0.451-1.08,0.451s-0.781-0.152-1.087-0.459
			c-0.306-0.305-0.458-0.662-0.458-1.072s0.155-0.771,0.465-1.08C184.267,46.584,184.622,46.43,185.023,46.43z"/>
		<path fill="#FFFFFF" d="M204.068,65.475l0.492,0.766c-0.665,0.684-1.403,1.025-2.215,1.025c-0.62,0-1.142-0.17-1.565-0.506
			c-0.424-0.338-0.795-0.93-1.114-1.777c-0.866,0.91-1.627,1.52-2.283,1.824c-0.656,0.307-1.444,0.459-2.365,0.459
			c-1.313,0-2.311-0.283-2.994-0.848c-0.684-0.566-1.025-1.291-1.025-2.174c0-1.331,0.781-2.436,2.345-3.316
			c1.563-0.879,3.644-1.465,6.241-1.756V57.23c0-0.693-0.278-1.285-0.834-1.777s-1.263-0.738-2.119-0.738
			c-0.793,0-1.477,0.164-2.051,0.492c-0.41,0.246-0.615,0.487-0.615,0.725c0,0.137,0.109,0.351,0.328,0.643
			c0.265,0.364,0.396,0.688,0.396,0.971c0,0.41-0.132,0.744-0.396,1.004s-0.61,0.391-1.039,0.391c-0.456,0-0.836-0.155-1.142-0.465
			c-0.306-0.311-0.458-0.707-0.458-1.189c0-0.902,0.508-1.728,1.524-2.475c1.017-0.748,2.35-1.121,3.999-1.121
			c1.522,0,2.685,0.328,3.486,0.984c0.802,0.665,1.203,1.472,1.203,2.42v7c0,0.619,0.101,1.074,0.301,1.367
			c0.2,0.301,0.46,0.451,0.779,0.451C203.303,65.912,203.677,65.766,204.068,65.475z M199.584,60.074
			c-2.315,0.318-3.956,0.838-4.922,1.559c-0.72,0.547-1.08,1.321-1.08,2.324c0,0.701,0.187,1.25,0.561,1.646
			s0.861,0.596,1.463,0.596c1.075,0,2.008-0.408,2.796-1.225c0.788-0.814,1.183-1.838,1.183-3.068V60.074z"/>
		<path fill="#FFFFFF" d="M209.482,48.85h0.916v5.223h4.143v1.258h-4.143v8.217c0,0.711,0.169,1.256,0.506,1.633
			c0.337,0.379,0.766,0.568,1.285,0.568c0.62,0,1.148-0.287,1.586-0.861s0.692-1.522,0.766-2.844h0.916
			c-0.055,1.703-0.442,2.969-1.162,3.793c-0.72,0.826-1.654,1.238-2.803,1.238c-1.058,0-1.885-0.289-2.481-0.869
			c-0.597-0.578-0.896-1.338-0.896-2.275v-8.6h-2.229v-0.957c1.016-0.174,1.789-0.598,2.319-1.271
			C208.993,52.09,209.418,50.672,209.482,48.85z"/>
		<path fill="#FFFFFF" d="M216.756,54.072l5.1-0.15v11.02c0,0.301,0.073,0.514,0.219,0.643c0.21,0.182,0.474,0.273,0.793,0.273
			h1.449v1.025h-7.287v-1.025h1.354c0.401,0,0.695-0.098,0.882-0.295c0.187-0.195,0.28-0.48,0.28-0.854v-8.066
			c0-0.511-0.146-0.896-0.438-1.156s-0.725-0.389-1.299-0.389h-1.053V54.072z M220.311,46.43c0.41,0,0.771,0.154,1.08,0.465
			c0.31,0.31,0.465,0.674,0.465,1.094c0,0.41-0.15,0.766-0.451,1.066s-0.661,0.451-1.08,0.451s-0.781-0.152-1.087-0.459
			c-0.306-0.305-0.458-0.662-0.458-1.072s0.155-0.771,0.465-1.08C219.554,46.584,219.909,46.43,220.311,46.43z"/>
		<path fill="#FFFFFF" d="M231.863,53.689c1.723,0,3.17,0.621,4.341,1.865s1.757,2.883,1.757,4.916c0,1.403-0.262,2.6-0.786,3.588
			c-0.524,0.99-1.271,1.771-2.242,2.346s-2.017,0.861-3.138,0.861c-1.659,0-3.064-0.629-4.218-1.887s-1.729-2.89-1.729-4.895
			c0-2.015,0.579-3.65,1.736-4.908S230.168,53.689,231.863,53.689z M231.863,54.66c-1.021,0-1.859,0.463-2.516,1.387
			c-0.656,0.926-0.984,2.387-0.984,4.383c0,2.032,0.326,3.518,0.978,4.457c0.651,0.938,1.492,1.408,2.522,1.408
			c1.066,0,1.93-0.471,2.591-1.408c0.661-0.939,0.991-2.475,0.991-4.607c0-1.979-0.326-3.409-0.978-4.293
			C233.816,55.102,232.948,54.66,231.863,54.66z"/>
		<path fill="#FFFFFF" d="M239.82,54.072l4.252-0.26c0.173,0.802,0.301,1.74,0.383,2.816c0.574-0.93,1.251-1.627,2.03-2.092
			s1.661-0.697,2.646-0.697c0.848,0,1.559,0.166,2.133,0.498c0.574,0.334,1.034,0.859,1.381,1.58c0.347,0.72,0.52,1.526,0.52,2.42
			v6.234c0,0.465,0.104,0.795,0.314,0.99c0.21,0.197,0.561,0.295,1.053,0.295h0.902v1.025h-6.754v-1.025h0.643
			c0.602,0,1.021-0.096,1.258-0.287s0.355-0.479,0.355-0.861v-5.482c0-1.194-0.183-2.078-0.547-2.652
			c-0.511-0.82-1.285-1.23-2.324-1.23c-1.03,0-1.889,0.414-2.577,1.244c-0.688,0.829-1.032,1.909-1.032,3.24v4.744
			c0,0.465,0.107,0.795,0.321,0.99c0.214,0.197,0.567,0.295,1.06,0.295h0.889v1.025h-6.781v-1.025h0.889
			c0.446,0,0.786-0.092,1.019-0.273c0.232-0.184,0.349-0.41,0.349-0.684v-8.271c0-0.547-0.148-0.962-0.444-1.244
			c-0.296-0.283-0.723-0.424-1.278-0.424h-0.656V54.072z"/>
	</g>
</g>
</svg>
