<?xml version="1.0" encoding="utf-8"?>
<!-- Generator: Adobe Illustrator 16.2.0, SVG Export Plug-In . SVG Version: 6.00 Build 0)  -->
<!DOCTYPE svg PUBLIC "-//W3C//DTD SVG 1.1//EN" "http://www.w3.org/Graphics/SVG/1.1/DTD/svg11.dtd">
<svg version="1.1" id="Layer_1" xmlns="http://www.w3.org/2000/svg" xmlns:xlink="http://www.w3.org/1999/xlink" x="0px" y="0px"
	 width="210px" height="80px" viewBox="0 0 210 80" enable-background="new 0 0 210 80" xml:space="preserve">
<path fill="#993333" d="M118.8,5.745c-9.037,0-16.428,7.092-16.949,16H101.8v0.998v2c0,6.066-4.935,11-11,11s-11-4.934-11-11
	c0-6.063,4.934-10.996,10.998-10.996v4.998l12.002-8l-12.002-8v5.002c-9.373,0-16.998,7.625-16.998,16.996c0,9.375,7.626,17,17,17
	c9.037,0,16.428-7.09,16.95-16h0.051v-1v-2c0-6.064,4.936-10.998,11-10.998c6.065,0,11.001,4.934,11.001,10.998
	c0,6.066-4.936,11-11.001,11v-5l-12,8l12,8v-5c9.374,0,17.001-7.625,17.001-17C135.801,13.37,128.174,5.745,118.8,5.745z"/>
<g>
	<g>
		<path fill="#FFFFFF" d="M13.921,76.82c-0.783,0.324-2.078,0.621-3.239,0.621c-1.592,0-3.077-0.432-4.292-1.781
			c-1.323-1.404-2.213-3.914-2.187-7.234c0.027-7.072,3.644-9.502,6.856-9.502c1.134,0,2.025,0.217,2.591,0.514l-0.458,1.781
			c-0.486-0.243-1.134-0.432-2.105-0.432c-2.268,0-4.724,1.809-4.724,7.449c0,5.615,2.132,7.424,4.318,7.424
			c0.702,0,1.107-0.136,1.269-0.217v-5.938H9.603v-1.729h4.319V76.82z"/>
		<path fill="#FFFFFF" d="M18.082,59.086h2.079v16.438h5.128v1.755h-7.207V59.086z"/>
		<path fill="#FFFFFF" d="M37.141,68.048c0,6.829-2.348,9.447-5.263,9.447c-3.023,0-5.048-3.212-5.048-9.34
			c0-6.019,2.16-9.285,5.345-9.285C35.279,58.87,37.141,62.244,37.141,68.048z M28.99,68.183c0,3.752,0.729,7.478,3.023,7.478
			c2.348,0,2.969-3.969,2.969-7.531c0-3.401-0.621-7.423-2.996-7.423C29.718,60.706,28.99,64.484,28.99,68.183z"/>
		<path fill="#FFFFFF" d="M40.978,59.356c0.864-0.216,1.89-0.352,3.05-0.352c1.646,0,3.05,0.352,4.022,1.269
			c0.783,0.729,1.188,1.809,1.188,3.104c0,1.862-1.026,3.348-2.807,4.049v0.054c2.105,0.567,3.374,2.268,3.374,4.644
			c0,1.512-0.486,2.726-1.296,3.616c-1.025,1.161-2.726,1.647-4.805,1.647c-1.35,0-2.159-0.081-2.726-0.189V59.356z M43.056,66.806
			H44c1.701,0,3.158-1.295,3.158-3.212c0-1.674-0.783-2.969-2.996-2.969c-0.486,0-0.864,0.054-1.106,0.135V66.806z M43.056,75.633
			c0.243,0.054,0.594,0.107,1.053,0.107c2.159,0,3.563-1.269,3.563-3.616c0-2.511-1.755-3.698-3.698-3.726h-0.917V75.633z"/>
		<path fill="#FFFFFF" d="M55.746,71.827l-1.215,5.452h-1.998l4.157-18.193h2.294l4.049,18.193h-2.052l-1.214-5.452H55.746z
			 M59.498,70.153l-0.945-4.616c-0.27-1.295-0.513-2.807-0.729-4.156h-0.108c-0.216,1.376-0.486,2.941-0.729,4.156l-0.945,4.616
			H59.498z"/>
		<path fill="#FFFFFF" d="M66.654,59.086h2.079v16.438h5.128v1.755h-7.207V59.086z"/>
	</g>
	<g>
		<path fill="#FFFFFF" d="M95.32,76.767c-0.756,0.378-2.456,0.782-4.669,0.782c-6.289,0-9.528-3.913-9.528-9.096
			c0-6.209,4.427-9.664,9.933-9.664c2.133,0,3.752,0.432,4.481,0.81l-0.838,3.267c-0.836-0.351-1.997-0.675-3.455-0.675
			c-3.266,0-5.803,1.971-5.803,6.02c0,3.644,2.159,5.938,5.831,5.938c1.242,0,2.619-0.271,3.427-0.594L95.32,76.767z"/>
		<path fill="#FFFFFF" d="M115.218,67.994c0,5.965-3.617,9.582-8.936,9.582c-5.398,0-8.556-4.076-8.556-9.259
			c0-5.452,3.482-9.528,8.854-9.528C112.167,58.789,115.218,62.973,115.218,67.994z M102.072,68.236
			c0,3.563,1.673,6.074,4.427,6.074c2.78,0,4.372-2.646,4.372-6.182c0-3.267-1.565-6.073-4.399-6.073
			C103.691,62.056,102.072,64.7,102.072,68.236z"/>
		<path fill="#FFFFFF" d="M119.271,77.279V59.086h4.805l3.779,6.667c1.08,1.917,2.159,4.185,2.969,6.235h0.081
			c-0.27-2.402-0.351-4.858-0.351-7.585v-5.317h3.779v18.193h-4.319l-3.887-7.019c-1.08-1.943-2.268-4.291-3.158-6.424l-0.081,0.027
			c0.108,2.402,0.162,4.966,0.162,7.936v5.479H119.271z"/>
		<path fill="#FFFFFF" d="M139.251,77.279V59.086h4.805l3.779,6.667c1.08,1.917,2.159,4.185,2.969,6.235h0.081
			c-0.27-2.402-0.351-4.858-0.351-7.585v-5.317h3.779v18.193h-4.319l-3.887-7.019c-1.08-1.943-2.268-4.291-3.158-6.424l-0.081,0.027
			c0.108,2.402,0.162,4.966,0.162,7.936v5.479H139.251z"/>
		<path fill="#FFFFFF" d="M170.055,69.586h-6.694v4.319h7.478v3.374H159.23V59.086h11.229v3.374h-7.1v3.779h6.694V69.586z"/>
		<path fill="#FFFFFF" d="M188.36,76.767c-0.756,0.378-2.456,0.782-4.669,0.782c-6.29,0-9.529-3.913-9.529-9.096
			c0-6.209,4.427-9.664,9.934-9.664c2.133,0,3.752,0.432,4.481,0.81l-0.837,3.267c-0.837-0.351-1.998-0.675-3.455-0.675
			c-3.267,0-5.804,1.971-5.804,6.02c0,3.644,2.159,5.938,5.83,5.938c1.242,0,2.618-0.271,3.429-0.594L188.36,76.767z"/>
		<path fill="#FFFFFF" d="M196.301,62.541h-4.886v-3.455h13.981v3.455h-4.966v14.738h-4.13V62.541z"/>
	</g>
</g>
</svg>
